*
*
G04 PADS VX.2.7 Build Number: 15549477 generated Gerber (RS-274-X) file*
G04 PC Version=2.1*
*
%IN "PAS.pcb"*%
*
%MOIN*%
*
%FSLAX35Y35*%
*
*
*
*
G04 PC Standard Apertures*
*
*
G04 Thermal Relief Aperture macro.*
%AMTER*
1,1,$1,0,0*
1,0,$1-$2,0,0*
21,0,$3,$4,0,0,45*
21,0,$3,$4,0,0,135*
%
*
*
G04 Annular Aperture macro.*
%AMANN*
1,1,$1,0,0*
1,0,$2,0,0*
%
*
*
G04 Odd Aperture macro.*
%AMODD*
1,1,$1,0,0*
1,0,$1-0.005,0,0*
%
*
*
G04 PC Custom Aperture Macros*
*
*
*
*
*
*
G04 PC Aperture Table*
*
%ADD010C,0.001*%
%ADD011C,0.005*%
%ADD014C,0.01008*%
*
*
*
*
G04 PC Circuitry*
G04 Layer Name PAS.pcb - circuitry*
%LPD*%
*
*
G04 PC Custom Flashes*
G04 Layer Name PAS.pcb - flashes*
%LPD*%
*
*
G04 PC Circuitry*
G04 Layer Name PAS.pcb - circuitry*
%LPD*%
*
G54D10*
G54D11*
G01X264826Y402744D02*
X267976D01*
Y395657*
X264826*
Y402744*
X260730Y403712D02*
G75*
G03X263872Y403856I1499J1643D01*
G01Y410351*
G03X260730Y410314I-1550J-1829*
G01Y403712*
X264726Y410644D02*
X267876D01*
Y403557*
X264726*
Y410644*
X281051Y392401D02*
X269751D01*
Y397601D02*
G03Y392401I2719J-2600D01*
G01Y397601D02*
X281051D01*
Y392401D02*
G03Y397601I-2972J2600D01*
G01X280806Y402854D02*
X268798D01*
Y409547*
X280806*
Y407776*
Y403051D02*
Y405020D01*
Y407776D02*
G03Y405020I197J-1378D01*
G01X282381Y411713D02*
G03X282381I-787J0D01*
G01X254213Y456157D02*
X243189D01*
Y463244*
X254213*
Y456157*
X252244D02*
Y463244D01*
X235441Y490123D02*
G03X235441I-8063J0D01*
G01X237296Y490131D02*
G03X237296I-9964J0D01*
G01X240764Y490123D02*
G03X240764I-13386J0D01*
G01X232738Y483947D02*
X211046Y487891D01*
X232738Y483947D02*
X234569Y494018D01*
X218687Y496905*
X218265Y494581*
X214145Y491729*
X211821Y492151*
X336626Y503744D02*
X339776D01*
Y496657*
X336626*
Y503744*
X332630Y496812D02*
G03X335772Y496956I1499J1643D01*
G01Y503451*
G03X332630Y503414I-1550J-1829*
G01Y496812*
X332276Y462157D02*
X329126D01*
Y469244*
X332276*
Y462157*
X356276Y350157D02*
X353126D01*
Y357244*
X356276*
Y350157*
Y342157D02*
X353126D01*
Y349244*
X356276*
Y342157*
Y334157D02*
X353126D01*
Y341244*
X356276*
Y334157*
X337689Y351244D02*
X348713D01*
Y344157*
X337689*
Y351244*
X339657D02*
Y344157D01*
X337689Y343244D02*
X348713D01*
Y336157*
X337689*
Y343244*
X339657D02*
Y336157D01*
X337689Y359244D02*
X348713D01*
Y352157*
X337689*
Y359244*
X339657D02*
Y352157D01*
X310244Y459276D02*
Y456126D01*
X303157*
Y459276*
X310244*
X310819Y459839D02*
X300583D01*
Y464563*
X310819*
Y459839*
X290476Y464169D02*
X299925D01*
Y460232*
X290476*
Y464169*
X294020D02*
Y460626D01*
X294413Y462201D02*
X296382Y463776D01*
Y460626*
X294413Y462201*
X290476Y460232D02*
X289689Y461020D01*
X290476Y464169D02*
X289689Y463382D01*
Y461020*
X298244Y468276D02*
Y465126D01*
X291157*
Y468276*
X298244*
X295913Y366357D02*
X284889D01*
Y373444*
X295913*
Y366357*
X293944D02*
Y373444D01*
X277226Y375544D02*
X280376D01*
Y368457*
X277226*
Y375544*
X286576Y374957D02*
X283426D01*
Y382044*
X286576*
Y374957*
X302513Y376957D02*
X291489D01*
Y384044*
X302513*
Y376957*
X300544D02*
Y384044D01*
X306712Y369772D02*
G03X306856Y366630I1643J-1499D01*
G01X313351*
G03X313314Y369772I-1829J1550*
G01X306712*
X314551Y370601D02*
X303251D01*
Y375801D02*
G03Y370601I2719J-2600D01*
G01Y375801D02*
X314551D01*
Y370601D02*
G03Y375801I-2972J2600D01*
G01X286476Y382857D02*
X283326D01*
Y389944*
X286476*
Y382857*
X302413Y384857D02*
X291389D01*
Y391944*
X302413*
Y384857*
X300444D02*
Y391944D01*
X283626Y411244D02*
X286776D01*
Y404157*
X283626*
Y411244*
X287630Y404312D02*
G03X290772Y404456I1499J1643D01*
G01Y410951*
G03X287630Y410914I-1550J-1829*
G01Y404312*
X246276Y374657D02*
X243126D01*
Y381744*
X246276*
Y374657*
X243157Y369626D02*
Y372776D01*
X250244*
Y369626*
X243157*
X307744Y444776D02*
Y441626D01*
X300657*
Y444776*
X307744*
Y448776D02*
Y445626D01*
X300657*
Y448776*
X307744*
X296626Y448744D02*
X299776D01*
Y441657*
X296626*
Y448744*
X312657Y445626D02*
Y448776D01*
X319744*
Y445626*
X312657*
Y441626D02*
Y444776D01*
X319744*
Y441626*
X312657*
X295776Y441657D02*
X292626D01*
Y448744*
X295776*
Y441657*
X308630Y441812D02*
G03X311772Y441956I1499J1643D01*
G01Y448451*
G03X308630Y448414I-1550J-1829*
G01Y441812*
X291772Y448590D02*
G03X288630Y448446I-1499J-1643D01*
G01Y441951*
G03X291772Y441988I1550J1829*
G01Y448590*
X343244Y524776D02*
Y521626D01*
X336157*
Y524776*
X343244*
X235752Y422917D02*
X254650D01*
Y410484D02*
G03Y422917I-23261J6217D01*
G01Y410484D02*
X235752D01*
Y422917D02*
G03Y410484I24146J-6216D01*
G01X327050Y525584D02*
X308152D01*
Y538017D02*
G03Y525584I23260J-6216D01*
G01Y538017D02*
X327050D01*
Y525584D02*
G03Y538017I-24146J6217D01*
G01X328727Y542138D02*
X344475D01*
Y534264*
X328727*
Y542138*
Y533438D02*
X344475D01*
Y525564*
X328727*
Y533438*
X336157Y517626D02*
Y520776D01*
X343244*
Y517626*
X336157*
X277827Y345075D02*
X293575D01*
Y329327*
X277827*
Y345075*
X274744Y332213D02*
Y321189D01*
X267657*
Y332213*
X274744*
Y330244D02*
X267657D01*
X353351Y486601D02*
X342051D01*
Y491801D02*
G03Y486601I2719J-2600D01*
G01Y491801D02*
X353351D01*
Y486601D02*
G03Y491801I-2972J2600D01*
G01X327851Y452601D02*
X316551D01*
Y457801D02*
G03Y452601I2719J-2600D01*
G01Y457801D02*
X327851D01*
Y452601D02*
G03Y457801I-2972J2600D01*
G01X299851Y418601D02*
X288551D01*
Y423801D02*
G03Y418601I2719J-2600D01*
G01Y423801D02*
X299851D01*
Y418601D02*
G03Y423801I-2972J2600D01*
G01X352622Y420713D02*
X360688Y414411D01*
X357780Y410688*
X349713Y416990*
X352622Y420713*
X347872Y422007D02*
G03X350431Y420179I2193J365D01*
G01X354444Y425286*
G03X351951Y427198I-2349J-481*
G01X347872Y422006*
X378357Y462036D02*
G03X380900Y460185I2197J346D01*
G01X384958Y465257*
G03X382481Y467191I-2353J-460*
G01X378357Y462036*
X383122Y460713D02*
X391188Y454411D01*
X388280Y450688*
X380213Y456990*
X383122Y460713*
X317357Y382036D02*
G03X319900Y380185I2197J346D01*
G01X323958Y385257*
G03X321481Y387191I-2353J-460*
G01X317357Y382036*
X255244Y393276D02*
Y390126D01*
X248157*
Y393276*
X255244*
X325626Y303244D02*
X328776D01*
Y296157*
X325626*
Y303244*
X279812Y315272D02*
G03X279956Y312130I1643J-1499D01*
G01X286451*
G03X286414Y315272I-1829J1550*
G01X279812*
X339752Y406129D02*
X315228Y425079D01*
X324650Y437272*
X349174Y418322*
X339752Y406129*
X374125Y398053D02*
X324134Y436380D01*
X391205Y523864*
X441196Y485538*
X374125Y398053*
X416201Y504701D02*
X349130Y417216D01*
X409499Y500165D02*
X408624Y506789D01*
X404635Y494468D02*
X402813Y508268D01*
X399423Y489287D02*
X395923Y515782D01*
X394996Y480278D02*
X389893Y518917D01*
X390039Y473165D02*
X385081Y510700D01*
X385342Y468332D02*
X380384Y505867D01*
X380551Y462083D02*
X375739Y498514D01*
X374656Y455689D02*
X369845Y492120D01*
X369626Y449127D02*
X364814Y485558D01*
X364778Y441186D02*
X359966Y477617D01*
X359086Y435380D02*
X354275Y471811D01*
X353410Y427329D02*
X348599Y463760D01*
X347995Y421559D02*
X343183Y457990D01*
X340954Y425965D02*
X337819Y449700D01*
X333862Y432891D02*
X332549Y442826D01*
X322122Y380713D02*
X330188Y374411D01*
X327280Y370688*
X319213Y376990*
X322122Y380713*
X361280Y415188D02*
X353213Y421490D01*
X356122Y425213*
X364188Y418911*
X361280Y415188*
X391780Y455188D02*
X383713Y461490D01*
X386622Y465213*
X394688Y458911*
X391780Y455188*
X330780Y375188D02*
X322713Y381490D01*
X325622Y385213*
X333688Y378911*
X330780Y375188*
X327626Y503744D02*
X330776D01*
Y496657*
X327626*
Y503744*
X319657Y500626D02*
Y503776D01*
X326744*
Y500626*
X319657*
X326590Y497130D02*
G03X326446Y500272I-1643J1499D01*
G01X319951*
G03X319988Y497130I1829J-1550*
G01X326590*
X227126Y417744D02*
X230276D01*
Y410657*
X227126*
Y417744*
X223626D02*
X226776D01*
Y410657*
X223626*
Y417744*
X227949Y350331D02*
X196453D01*
Y379071*
X227949*
Y350331*
X218106Y379071D02*
X206295D01*
Y382417*
X218106*
Y379071*
X220469Y372181D02*
X221650Y373362D01*
X219287*
X220469Y372181*
X287126Y484244D02*
X290276D01*
Y477157*
X287126*
Y484244*
X294276Y477157D02*
X291126D01*
Y484244*
X294276*
Y477157*
X299657Y485606D02*
Y473795D01*
X306744*
Y485606*
X299657*
X260776Y486157D02*
X257626D01*
Y493244*
X260776*
Y486157*
X222051Y385301D02*
X233351D01*
Y380101D02*
G03Y385301I-2720J2600D01*
G01Y380101D02*
X222051D01*
Y385301D02*
G03Y380101I2971J-2600D01*
G01X248626Y438244D02*
X251776D01*
Y431157*
X248626*
Y438244*
X244772Y438090D02*
G03X241630Y437946I-1499J-1643D01*
G01Y431451*
G03X244772Y431488I1550J1829*
G01Y438090*
X248276Y431157D02*
X245126D01*
Y438244*
X248276*
Y431157*
X252126Y438244D02*
X255276D01*
Y431157*
X252126*
Y438244*
X255626D02*
X258776D01*
Y431157*
X255626*
Y438244*
X252547Y451606D02*
Y439598D01*
X245854*
Y451606*
X247626*
X252350D02*
X250382D01*
X247626D02*
G03X250382I1378J197D01*
G01X254090Y452630D02*
G03X253946Y455772I-1643J1499D01*
G01X247451*
G03X247488Y452630I1829J-1550*
G01X254090*
X216851Y407101D02*
X205551D01*
Y412301D02*
G03Y407101I2719J-2600D01*
G01Y412301D02*
X216851D01*
Y407101D02*
G03Y412301I-2972J2600D01*
G01X189666Y327629D02*
X186516D01*
Y334716*
X189666*
Y327629*
X259252Y448417D02*
X278150D01*
Y435984D02*
G03Y448417I-23261J6217D01*
G01Y435984D02*
X259252D01*
Y448417D02*
G03Y435984I24146J-6216D01*
G01X215657Y414626D02*
Y417776D01*
X222744*
Y414626*
X215657*
X208157D02*
Y417776D01*
X215244*
Y414626*
X208157*
X215090Y418130D02*
G03X214946Y421272I-1643J1499D01*
G01X208451*
G03X208488Y418130I1829J-1550*
G01X215090*
X367563Y532319D02*
Y522083D01*
X362839*
Y532319*
X367563*
X372563D02*
Y522083D01*
X367839*
Y532319*
X372563*
X370303Y445654D02*
X345717Y464523D01*
X355098Y476747*
X379685Y457879*
X370303Y445654*
X401400Y485702D02*
X376696Y504417D01*
X386002Y516700*
X410705Y497985*
X401400Y485702*
X203339Y389083D02*
Y399319D01*
X208063*
Y389083*
X203339*
X234772Y477090D02*
G03X231630Y476946I-1499J-1643D01*
G01Y470451*
G03X234772Y470488I1550J1829*
G01Y477090*
X229213Y435657D02*
X218189D01*
Y442744*
X229213*
Y435657*
X227244D02*
Y442744D01*
X321795Y515547D02*
X333803D01*
Y508854*
X321795*
Y510626*
Y515350D02*
Y513382D01*
Y510626D02*
G03Y513382I-197J1378D01*
G01X275812Y458272D02*
G03X275956Y455130I1643J-1499D01*
G01X282451*
G03X282414Y458272I-1829J1550*
G01X275812*
X385801Y551351D02*
Y540051D01*
X380601D02*
G03X385801I2600J2719D01*
G01X380601D02*
Y551351D01*
X385801D02*
G03X380601I-2600J-2972D01*
G01X428119Y469053D02*
X416932Y477755D01*
X421282Y483348D02*
G03X416932Y477755I3496J-7207D01*
G01X421282Y483348D02*
X432470Y474647D01*
X428119Y469053D02*
G03X432470Y474647I-3106J6905D01*
G01X382619Y395053D02*
X371432Y403755D01*
X375782Y409348D02*
G03X371432Y403755I3496J-7207D01*
G01X375782Y409348D02*
X386970Y400647D01*
X382619Y395053D02*
G03X386970Y400647I-3106J6905D01*
G01X316744Y516213D02*
Y505189D01*
X309657*
Y516213*
X316744*
Y514244D02*
X309657D01*
X361575Y524764D02*
X345827D01*
Y532638*
X361575*
Y524764*
X196390Y313413D02*
Y339988D01*
X212138*
Y313413*
X196390*
X235953Y337177D02*
Y359224D01*
X237921*
Y362768*
X253276*
Y333634*
X237921*
Y337177*
X235953*
X233101Y339539D02*
G03X233101I-881J0D01*
G01X253446Y510937D02*
X279227Y517382D01*
X283046Y502104*
X257265Y495659*
X253446Y510937*
X159419Y368584D02*
X183339Y459994D01*
X210762Y452818*
X186843Y361408*
X186843D02*
X159419Y368584D01*
X191826Y380451D02*
X205779Y433774D01*
X207302Y433376*
X193349Y380053*
X191826Y380451*
X182742Y370620D02*
X183304Y369659D01*
X183703Y371182*
X182742Y370620*
X138834Y340338D02*
X156643Y366315D01*
X180348Y350064*
X162538Y324087*
X162538D02*
X138834Y340338D01*
X168104Y332204D02*
X174782Y341946D01*
X177542Y340054*
X170864Y330312*
X168104Y332204*
X161085Y334152D02*
X161392Y332510D01*
X162727Y334458*
X161085Y334152*
X308575Y519075D02*
Y503327D01*
X292827*
Y519075*
X308575*
X232075Y444327D02*
X216327D01*
Y460075*
X232075*
Y444327*
X257075Y464827D02*
X241327D01*
Y480575*
X257075*
Y464827*
X367465Y552358D02*
X357024D01*
X356827Y552256D02*
Y534146D01*
X367465Y534043D02*
X357024D01*
X395077Y486677D02*
X382473Y470545D01*
X364169Y484846*
X376773Y500978*
X395077Y486677*
X376011Y502008D02*
G03X376011I-556J0D01*
G01X363577Y446677D02*
X350973Y430545D01*
X332669Y444846*
X345273Y460978*
X363577Y446677*
X344511Y462008D02*
G03X344511I-556J0D01*
G01X334077Y406677D02*
X321473Y390545D01*
X303169Y404846*
X315773Y420978*
X334077Y406677*
X315011Y422008D02*
G03X315011I-556J0D01*
G01X438077Y454177D02*
X425473Y438045D01*
X407169Y452346*
X419773Y468478*
X438077Y454177*
X419011Y469508D02*
G03X419011I-556J0D01*
G01X408077Y414177D02*
X395473Y398045D01*
X377169Y412346*
X389773Y428478*
X408077Y414177*
X389011Y429508D02*
G03X389011I-556J0D01*
G01X377577Y375677D02*
X364973Y359545D01*
X346669Y373846*
X359273Y389978*
X377577Y375677*
X358511Y391008D02*
G03X358511I-556J0D01*
G01X380063Y550819D02*
Y540583D01*
X375339*
Y550819*
X380063*
X392136Y453720D02*
X400185Y447396D01*
X397266Y443681*
X389217Y450005*
X392136Y453720*
X361570Y413686D02*
X369701Y407468D01*
X366832Y403715*
X358700Y409933*
X361570Y413686*
X331061Y373682D02*
X339203Y367478D01*
X336340Y363720*
X328198Y369924*
X331061Y373682*
X372791Y470194D02*
X364711Y476478D01*
X367611Y480208*
X375691Y473923*
X372791Y470194*
X341317Y430208D02*
X333204Y436449D01*
X336084Y440194*
X344198Y433953*
X341317Y430208*
X310766Y390681D02*
X302717Y397005D01*
X305636Y400720*
X313685Y394396*
X310766Y390681*
X263559Y482189D02*
X283843D01*
Y470213*
X263559*
Y475020*
Y482106D02*
Y476988D01*
Y475020D02*
G03Y476988I115J984D01*
G01X218713Y386059D02*
Y406343D01*
X230689*
Y386059*
X225882*
X218795D02*
X223913D01*
X225882D02*
G03X223913I-984J115D01*
G01X227547Y430606D02*
Y418598D01*
X220854*
Y430606*
X222626*
X227350D02*
X225382D01*
X222626D02*
G03X225382I1378J197D01*
G01X413119Y434553D02*
X401932Y443255D01*
X406282Y448848D02*
G03X401932Y443255I3496J-7207D01*
G01X406282Y448848D02*
X417470Y440147D01*
X413119Y434553D02*
G03X417470Y440147I-3106J6905D01*
G01X320772Y512590D02*
G03X317630Y512446I-1499J-1643D01*
G01Y505951*
G03X320772Y505988I1550J1829*
G01Y512590*
X229090Y431630D02*
G03X228946Y434772I-1643J1499D01*
G01X222451*
G03X222488Y431630I1829J-1550*
G01X229090*
X227090Y472130D02*
G03X226946Y475272I-1643J1499D01*
G01X220451*
G03X220488Y472130I1829J-1550*
G01X227090*
X252590Y492630D02*
G03X252446Y495772I-1643J1499D01*
G01X245951*
G03X245988Y492630I1829J-1550*
G01X252590*
X296312Y490272D02*
G03X296456Y487130I1643J-1499D01*
G01X302951*
G03X302914Y490272I-1829J1550*
G01X296312*
X218551Y471801D02*
X229851D01*
Y466601D02*
G03Y471801I-2720J2600D01*
G01Y466601D02*
X218551D01*
Y471801D02*
G03Y466601I2971J-2600D01*
G01Y466301D02*
X229851D01*
Y461101D02*
G03Y466301I-2720J2600D01*
G01Y461101D02*
X218551D01*
Y466301D02*
G03Y461101I2971J-2600D01*
G01X243551Y492301D02*
X254851D01*
Y487101D02*
G03Y492301I-2720J2600D01*
G01Y487101D02*
X243551D01*
Y492301D02*
G03Y487101I2971J-2600D01*
G01Y486801D02*
X254851D01*
Y481601D02*
G03Y486801I-2720J2600D01*
G01Y481601D02*
X243551D01*
Y486801D02*
G03Y481601I2971J-2600D01*
G01X304851Y496101D02*
X293551D01*
Y501301D02*
G03Y496101I2719J-2600D01*
G01Y501301D02*
X304851D01*
Y496101D02*
G03Y501301I-2972J2600D01*
G01Y490601D02*
X293551D01*
Y495801D02*
G03Y490601I2719J-2600D01*
G01Y495801D02*
X304851D01*
Y490601D02*
G03Y495801I-2972J2600D01*
G01X227744Y344776D02*
Y341626D01*
X220657*
Y344776*
X227744*
Y348776D02*
Y345626D01*
X220657*
Y348776*
X227744*
X326157Y521626D02*
Y524776D01*
X333244*
Y521626*
X326157*
X288851Y322101D02*
X277551D01*
Y327301D02*
G03Y322101I2719J-2600D01*
G01Y327301D02*
X288851D01*
Y322101D02*
G03Y327301I-2972J2600D01*
G01X264638Y304575D02*
Y288827D01*
X256764*
Y304575*
X264638*
X364106Y318854D02*
X352098D01*
Y325547*
X364106*
Y323776*
Y319051D02*
Y321020D01*
Y323776D02*
G03Y321020I197J-1378D01*
G01X365681Y327713D02*
G03X365681I-787J0D01*
G01X327606Y463354D02*
X315598D01*
Y470047*
X327606*
Y468276*
Y463551D02*
Y465520D01*
Y468276D02*
G03Y465520I197J-1378D01*
G01X329181Y472213D02*
G03X329181I-787J0D01*
G01X353106Y497354D02*
X341098D01*
Y504047*
X353106*
Y502276*
Y497551D02*
Y499520D01*
Y502276D02*
G03Y499520I197J-1378D01*
G01X354681Y506213D02*
G03X354681I-787J0D01*
G01X362630Y510312D02*
G03X365772Y510456I1499J1643D01*
G01Y516951*
G03X362630Y516914I-1550J-1829*
G01Y510312*
X319272Y483590D02*
G03X316130Y483446I-1499J-1643D01*
G01Y476951*
G03X319272Y476988I1550J1829*
G01Y483590*
X336130Y476812D02*
G03X339272Y476956I1499J1643D01*
G01Y483451*
G03X336130Y483414I-1550J-1829*
G01Y476812*
X279812Y349772D02*
G03X279956Y346630I1643J-1499D01*
G01X286451*
G03X286414Y349772I-1829J1550*
G01X279812*
X294312Y354772D02*
G03X294456Y351630I1643J-1499D01*
G01X300951*
G03X300914Y354772I-1829J1550*
G01X294312*
X368812Y332772D02*
G03X368956Y329630I1643J-1499D01*
G01X375451*
G03X375414Y332772I-1829J1550*
G01X368812*
X356812Y313272D02*
G03X356956Y310130I1643J-1499D01*
G01X363451*
G03X363414Y313272I-1829J1550*
G01X356812*
X259090Y369630D02*
G03X258946Y372772I-1643J1499D01*
G01X252451*
G03X252488Y369630I1829J-1550*
G01X259090*
X288851Y316101D02*
X277551D01*
Y321301D02*
G03Y316101I2719J-2600D01*
G01Y321301D02*
X288851D01*
Y316101D02*
G03Y321301I-2972J2600D01*
G01X301301Y304351D02*
Y293051D01*
X296101D02*
G03X301301I2600J2719D01*
G01X296101D02*
Y304351D01*
X301301D02*
G03X296101I-2600J-2972D01*
G01X316158Y312614D02*
Y326787D01*
X323244D02*
G03X316158I-3543J-7184D01*
G01X323244D02*
Y312614D01*
X316158D02*
G03X323244I3543J6692D01*
G01X332158D02*
Y326787D01*
X339244D02*
G03X332158I-3543J-7184D01*
G01X339244D02*
Y312614D01*
X332158D02*
G03X339244I3543J6692D01*
G01X300158D02*
Y326787D01*
X307244D02*
G03X300158I-3543J-7184D01*
G01X307244D02*
Y312614D01*
X300158D02*
G03X307244I3543J6692D01*
G01X273417Y357150D02*
Y338252D01*
X260984D02*
G03X273417I6217J23260D01*
G01X260984D02*
Y357150D01*
X273417D02*
G03X260984I-6216J-24146D01*
G01X323276Y476657D02*
X320126D01*
Y483744*
X323276*
Y476657*
X255244Y397276D02*
Y394126D01*
X248157*
Y397276*
X255244*
X244126Y397244D02*
X247276D01*
Y390157*
X244126*
Y397244*
X266657Y359626D02*
Y362776D01*
X273744*
Y359626*
X266657*
X301244Y358776D02*
Y355626D01*
X294157*
Y358776*
X301244*
X294157Y359626D02*
Y362776D01*
X301244*
Y359626*
X294157*
X332776Y296157D02*
X329626D01*
Y303244*
X332776*
Y296157*
X395622Y458213D02*
X403688Y451911D01*
X400780Y448188*
X392713Y454490*
X395622Y458213*
X365091Y418197D02*
X373196Y411945D01*
X370310Y408204*
X362206Y414457*
X365091Y418197*
X334584Y378194D02*
X342698Y371953D01*
X339817Y368208*
X331704Y374449*
X334584Y378194*
X296611Y407708D02*
X304691Y401423D01*
X301791Y397694*
X293711Y403978*
X296611Y407708*
X327111Y447208D02*
X335191Y440923D01*
X332291Y437194*
X324211Y443478*
X327111Y447208*
X358636Y487220D02*
X366685Y480896D01*
X363766Y477181*
X355717Y483505*
X358636Y487220*
X295063Y303819D02*
Y293583D01*
X290339*
Y303819*
X295063*
X302339Y293583D02*
Y303819D01*
X307063*
Y293583*
X302339*
X347244Y324713D02*
Y313689D01*
X340157*
Y324713*
X347244*
Y322744D02*
X340157D01*
X331244Y324713D02*
Y313689D01*
X324157*
Y324713*
X331244*
Y322744D02*
X324157D01*
X315244Y324713D02*
Y313689D01*
X308157*
Y324713*
X315244*
Y322744D02*
X308157D01*
X319744Y295795D02*
Y307606D01*
X312657*
Y295795*
X319744*
X299606Y428854D02*
X287598D01*
Y435547*
X299606*
Y433776*
Y429051D02*
Y431020D01*
Y433776D02*
G03Y431020I197J-1378D01*
G01X301181Y437713D02*
G03X301181I-787J0D01*
G01X259606Y377854D02*
X247598D01*
Y384547*
X259606*
Y382776*
Y378051D02*
Y380020D01*
Y382776D02*
G03Y380020I197J-1378D01*
G01X261181Y386713D02*
G03X261181I-787J0D01*
G01X376606Y338854D02*
X364598D01*
Y345547*
X376606*
Y343776*
Y339051D02*
Y341020D01*
Y343776D02*
G03Y341020I197J-1378D01*
G01X378181Y347713D02*
G03X378181I-787J0D01*
G01X280354Y351295D02*
Y363303D01*
X287047*
Y351295*
X285276*
X280551D02*
X282520D01*
X285276D02*
G03X282520I-1378J-197D01*
G01X282965Y310858D02*
X272524D01*
X272327Y310756D02*
Y292646D01*
X282965Y292543D02*
X272524D01*
X330693Y339843D02*
X304709D01*
Y357559*
X330693*
Y349882*
X329315*
G03Y346732I2165J-1575*
G01X330693*
Y339843*
X329315Y363661D02*
X330102Y364449D01*
X328528*
X329315Y363661*
X366657Y510126D02*
Y513276D01*
X373744*
Y510126*
X366657*
Y514126D02*
Y517276D01*
X373744*
Y514126*
X366657*
X340157Y476626D02*
Y479776D01*
X347244*
Y476626*
X340157*
Y480626D02*
Y483776D01*
X347244*
Y480626*
X340157*
X361744Y517276D02*
Y514126D01*
X354657*
Y517276*
X361744*
Y513276D02*
Y510126D01*
X354657*
Y513276*
X361744*
X350626Y517244D02*
X353776D01*
Y510157*
X350626*
Y517244*
X324126Y483744D02*
X327276D01*
Y476657*
X324126*
Y483744*
X357776Y495657D02*
X354626D01*
Y502744*
X357776*
Y495657*
X335244Y483776D02*
Y480626D01*
X328157*
Y483776*
X335244*
Y479776D02*
Y476626D01*
X328157*
Y479776*
X335244*
X303776Y428657D02*
X300626D01*
Y435744*
X303776*
Y428657*
X263244Y393276D02*
Y390126D01*
X256157*
Y393276*
X263244*
X269744Y389276D02*
Y386126D01*
X262657*
Y389276*
X269744*
Y385276D02*
Y382126D01*
X262657*
Y385276*
X269744*
Y381276D02*
Y378126D01*
X262657*
Y381276*
X269744*
X251457Y459476D02*
X249411D01*
X245710Y458069D02*
Y460882D01*
X246732Y459476D02*
X244687D01*
X205806Y486019D02*
X206263Y488508D01*
X207040Y487079D02*
X205029Y487448D01*
X209435Y500249D02*
X207423Y500618D01*
X340445Y347926D02*
X342490D01*
X346192Y349332D02*
Y346520D01*
X345169Y347926D02*
X347215D01*
X340445Y339926D02*
X342490D01*
X346192Y341332D02*
Y338520D01*
X345169Y339926D02*
X347215D01*
X340445Y355926D02*
X342490D01*
X346192Y357332D02*
Y354520D01*
X345169Y355926D02*
X347215D01*
X293157Y369676D02*
X291111D01*
X287410Y368269D02*
Y371082D01*
X288432Y369676D02*
X286387D01*
X299757Y380276D02*
X297711D01*
X294010Y378869D02*
Y381682D01*
X295032Y380276D02*
X292987D01*
X299657Y388176D02*
X297611D01*
X293910Y386769D02*
Y389582D01*
X294932Y388176D02*
X292887D01*
X372490Y379335D02*
X374495Y377791D01*
X372868Y377753D02*
X374116Y379374D01*
X361947Y386155D02*
X363195Y387775D01*
X271426Y329457D02*
Y327411D01*
X272832Y323710D02*
X270020D01*
X271426Y324732D02*
Y322687D01*
X431578Y500322D02*
X433119Y502330D01*
X433160Y500703D02*
X431537Y501948D01*
X409102Y519148D02*
X407479Y520393D01*
X226457Y438976D02*
X224411D01*
X220710Y437569D02*
Y440382D01*
X221732Y438976D02*
X219687D01*
X402990Y418835D02*
X404995Y417291D01*
X403368Y417253D02*
X404616Y418874D01*
X392447Y425655D02*
X393695Y427275D01*
X313426Y513457D02*
Y511411D01*
X314832Y507710D02*
X312020D01*
X313426Y508732D02*
Y506687D01*
X343926Y321957D02*
Y319911D01*
X345332Y316210D02*
X342520D01*
X343926Y317232D02*
Y315187D01*
X327926Y321957D02*
Y319911D01*
X329332Y316210D02*
X326520D01*
X327926Y317232D02*
Y315187D01*
X311926Y321957D02*
Y319911D01*
X313332Y316210D02*
X310520D01*
X311926Y317232D02*
Y315187D01*
X273800Y493886D02*
Y490933D01*
Y493886D02*
X274823D01*
X275163Y493745*
X275277Y493605*
X275391Y493323*
Y492902*
X275277Y492620*
X275163Y492480*
X274823Y492339*
X273800*
X276413Y493886D02*
Y490933D01*
Y493886D02*
X277436D01*
X277777Y493745*
X277891Y493605*
X278004Y493323*
Y493042*
X277891Y492761*
X277777Y492620*
X277436Y492480*
X276413*
X277209D02*
X278004Y490933D01*
X279709Y493886D02*
X279482Y493745D01*
X279254Y493464*
X279141Y493183*
X279027Y492761*
Y492058*
X279141Y491636*
X279254Y491355*
X279482Y491073*
X279709Y490933*
X280163*
X280391Y491073*
X280618Y491355*
X280732Y491636*
X280845Y492058*
Y492761*
X280732Y493183*
X280618Y493464*
X280391Y493745*
X280163Y493886*
X279709*
X283573Y493183D02*
X283459Y493464D01*
X283232Y493745*
X283004Y493886*
X282550*
X282323Y493745*
X282095Y493464*
X281982Y493183*
X281868Y492761*
Y492058*
X281982Y491636*
X282095Y491355*
X282323Y491073*
X282550Y490933*
X283004*
X283232Y491073*
X283459Y491355*
X283573Y491636*
Y492058*
X283004D02*
X283573D01*
X284595Y493886D02*
Y490933D01*
Y493886D02*
X285618D01*
X285959Y493745*
X286073Y493605*
X286186Y493323*
Y493042*
X286073Y492761*
X285959Y492620*
X285618Y492480*
X284595*
X285391D02*
X286186Y490933D01*
X288118Y493886D02*
X287209Y490933D01*
X288118Y493886D02*
X289027Y490933D01*
X287550Y491917D02*
X288686D01*
X290050Y493886D02*
Y490933D01*
Y493886D02*
X290959Y490933D01*
X291868Y493886D02*
X290959Y490933D01*
X291868Y493886D02*
Y490933D01*
X233951Y326904D02*
Y324795D01*
X234064Y324373*
X234292Y324091*
X234633Y323951*
X234860*
X235201Y324091*
X235428Y324373*
X235542Y324795*
Y326904*
X238155Y326482D02*
X237928Y326763D01*
X237587Y326904*
X237133*
X236792Y326763*
X236564Y326482*
Y326201*
X236678Y325920*
X236792Y325779*
X237019Y325638*
X237701Y325357*
X237928Y325216*
X238042Y325076*
X238155Y324795*
Y324373*
X237928Y324091*
X237587Y323951*
X237133*
X236792Y324091*
X236564Y324373*
X239178Y326904D02*
Y323951D01*
Y326904D02*
X240201D01*
X240542Y326763*
X240655Y326623*
X240769Y326341*
Y326060*
X240655Y325779*
X240542Y325638*
X240201Y325498*
X239178D02*
X240201D01*
X240542Y325357*
X240655Y325216*
X240769Y324935*
Y324513*
X240655Y324232*
X240542Y324091*
X240201Y323951*
X239178*
X188217Y326181D02*
X187876Y326040D01*
X187648Y325618*
X187535Y324915*
Y324493*
X187648Y323790*
X187876Y323368*
X188217Y323228*
X188444*
X188785Y323368*
X189012Y323790*
X189126Y324493*
Y324915*
X189012Y325618*
X188785Y326040*
X188444Y326181*
X188217*
X190830D02*
X190489Y326040D01*
X190262Y325618*
X190148Y324915*
Y324493*
X190262Y323790*
X190489Y323368*
X190830Y323228*
X191058*
X191398Y323368*
X191626Y323790*
X191739Y324493*
Y324915*
X191626Y325618*
X191398Y326040*
X191058Y326181*
X190830*
X194239Y325197D02*
X194126Y324775D01*
X193898Y324493*
X193558Y324353*
X193444*
X193103Y324493*
X192876Y324775*
X192762Y325197*
Y325337*
X192876Y325759*
X193103Y326040*
X193444Y326181*
X193558*
X193898Y326040*
X194126Y325759*
X194239Y325197*
Y324493*
X194126Y323790*
X193898Y323368*
X193558Y323228*
X193330*
X192989Y323368*
X192876Y323650*
X168760Y328128D02*
Y325175D01*
X170351Y328128D02*
Y325175D01*
X168760Y326722D02*
X170351D01*
X172283Y328128D02*
X171373Y325175D01*
X172283Y328128D02*
X173192Y325175D01*
X171714Y326159D02*
X172851D01*
X174214Y328128D02*
Y325175D01*
X175578*
X176601Y328128D02*
Y325175D01*
X177964*
X230986Y363516D02*
X230704Y363288D01*
X230564Y362948*
Y362493*
X230704Y362152*
X230986Y361925*
X231267*
X231548Y362038*
X231689Y362152*
X231829Y362379*
X232111Y363061*
X232251Y363288*
X232392Y363402*
X232673Y363516*
X233095*
X233376Y363288*
X233517Y362948*
Y362493*
X233376Y362152*
X233095Y361925*
X230564Y364538D02*
X233517D01*
X230564D02*
Y366016D01*
X231970Y364538D02*
Y365448D01*
X233517Y364538D02*
Y366016D01*
X230564Y367038D02*
X233517D01*
X230564D02*
X233517Y368629D01*
X230564D02*
X233517D01*
X230986Y371243D02*
X230704Y371016D01*
X230564Y370675*
Y370220*
X230704Y369879*
X230986Y369652*
X231267*
X231548Y369766*
X231689Y369879*
X231829Y370107*
X232111Y370788*
X232251Y371016*
X232392Y371129*
X232673Y371243*
X233095*
X233376Y371016*
X233517Y370675*
Y370220*
X233376Y369879*
X233095Y369652*
X230564Y372948D02*
X230704Y372720D01*
X230986Y372493*
X231267Y372379*
X231689Y372266*
X232392*
X232814Y372379*
X233095Y372493*
X233376Y372720*
X233517Y372948*
Y373402*
X233376Y373629*
X233095Y373857*
X232814Y373970*
X232392Y374084*
X231689*
X231267Y373970*
X230986Y373857*
X230704Y373629*
X230564Y373402*
Y372948*
Y375107D02*
X233517D01*
X230564D02*
Y376129D01*
X230704Y376470*
X230845Y376584*
X231126Y376698*
X231407*
X231689Y376584*
X231829Y376470*
X231970Y376129*
Y375107*
Y375902D02*
X233517Y376698D01*
X421944Y535181D02*
Y532228D01*
Y535181D02*
X422739D01*
X423080Y535040*
X423307Y534759*
X423421Y534478*
X423535Y534056*
Y533353*
X423421Y532931*
X423307Y532650*
X423080Y532368*
X422739Y532228*
X421944*
X426262Y534478D02*
X426148Y534759D01*
X425921Y535040*
X425694Y535181*
X425239*
X425012Y535040*
X424785Y534759*
X424671Y534478*
X424557Y534056*
Y533353*
X424671Y532931*
X424785Y532650*
X425012Y532368*
X425239Y532228*
X425694*
X425921Y532368*
X426148Y532650*
X426262Y532931*
X428421Y535181D02*
X427285Y533212D01*
X428989*
X428421Y535181D02*
Y532228D01*
X430580Y535181D02*
X430239Y535040D01*
X430126Y534759*
Y534478*
X430239Y534197*
X430467Y534056*
X430921Y533915*
X431262Y533775*
X431489Y533493*
X431603Y533212*
Y532790*
X431489Y532509*
X431376Y532368*
X431035Y532228*
X430580*
X430239Y532368*
X430126Y532509*
X430012Y532790*
Y533212*
X430126Y533493*
X430353Y533775*
X430694Y533915*
X431148Y534056*
X431376Y534197*
X431489Y534478*
Y534759*
X431376Y535040*
X431035Y535181*
X430580*
X389451Y543904D02*
Y540951D01*
Y543904D02*
X390474D01*
X390814Y543763*
X390928Y543623*
X391042Y543341*
Y542920*
X390928Y542638*
X390814Y542498*
X390474Y542357*
X389451*
X392974Y543904D02*
X392064Y540951D01*
X392974Y543904D02*
X393883Y540951D01*
X392405Y541935D02*
X393542D01*
X396496Y543482D02*
X396269Y543763D01*
X395928Y543904*
X395474*
X395133Y543763*
X394905Y543482*
Y543201*
X395019Y542920*
X395133Y542779*
X395360Y542638*
X396042Y542357*
X396269Y542216*
X396383Y542076*
X396496Y541795*
Y541373*
X396269Y541091*
X395928Y540951*
X395474*
X395133Y541091*
X394905Y541373*
X397519Y542216D02*
X399564D01*
X400587Y543904D02*
Y540951D01*
X402178Y543904D02*
Y540951D01*
X400587Y542498D02*
X402178D01*
X403883Y543904D02*
X403542Y543763D01*
X403314Y543341*
X403201Y542638*
Y542216*
X403314Y541513*
X403542Y541091*
X403883Y540951*
X404110*
X404451Y541091*
X404678Y541513*
X404792Y542216*
Y542638*
X404678Y543341*
X404451Y543763*
X404110Y543904*
X403883*
X406496D02*
X406155Y543763D01*
X405928Y543341*
X405814Y542638*
Y542216*
X405928Y541513*
X406155Y541091*
X406496Y540951*
X406724*
X407064Y541091*
X407292Y541513*
X407405Y542216*
Y542638*
X407292Y543341*
X407064Y543763*
X406724Y543904*
X406496*
X408428Y543341D02*
X408655Y543482D01*
X408996Y543904*
Y540951*
X410019Y542216D02*
X412064D01*
X413996Y543904D02*
X413087Y540951D01*
X413996Y543904D02*
X414905Y540951D01*
X413428Y541935D02*
X414564D01*
X415928Y543341D02*
X416155Y543482D01*
X416496Y543904*
Y540951*
X417519Y543904D02*
Y540951D01*
Y543904D02*
X418314D01*
X418655Y543763*
X418883Y543482*
X418996Y543201*
X419110Y542779*
Y542076*
X418996Y541654*
X418883Y541373*
X418655Y541091*
X418314Y540951*
X417519*
X420246Y543201D02*
Y543341D01*
X420360Y543623*
X420474Y543763*
X420701Y543904*
X421155*
X421383Y543763*
X421496Y543623*
X421610Y543341*
Y543060*
X421496Y542779*
X421269Y542357*
X420133Y540951*
X421724*
X240184Y490092D02*
G03X240184I-12874J0D01*
G03X240184I-12874J0*
G01X214436Y490266D02*
X240183D01*
X214438Y489816D02*
X240181D01*
X214450Y490716D02*
X240169D01*
X214456Y489366D02*
X240164D01*
X214480Y491166D02*
X240139D01*
X214489Y488916D02*
X240130D01*
X214526Y491616D02*
X240094D01*
X214538Y488466D02*
X240081D01*
X214588Y492066D02*
X240032D01*
X214604Y488016D02*
X240016D01*
X214666Y492516D02*
X239954D01*
X214685Y487566D02*
X239934D01*
X214760Y492966D02*
X239859D01*
X214784Y487116D02*
X239836D01*
X214872Y493416D02*
X239748D01*
X214899Y486666D02*
X239720D01*
X215001Y493866D02*
X239618D01*
X215033Y486216D02*
X239587D01*
X215148Y494316D02*
X239471D01*
X215184Y485766D02*
X239436D01*
X215314Y494766D02*
X239306D01*
X215354Y485316D02*
X239266D01*
X215499Y495216D02*
X239120D01*
X215544Y484866D02*
X239076D01*
X215705Y495666D02*
X238915D01*
X215754Y484416D02*
X238866D01*
X215932Y496116D02*
X238688D01*
X215986Y483966D02*
X238633D01*
X216182Y496566D02*
X238438D01*
X216241Y483516D02*
X238378D01*
X216456Y497016D02*
X238163D01*
X216521Y483066D02*
X238098D01*
X216757Y497466D02*
X237863D01*
X216828Y482616D02*
X237791D01*
X217086Y497916D02*
X237534D01*
X217164Y482166D02*
X237455D01*
X217446Y498366D02*
X237173D01*
X217532Y481716D02*
X237087D01*
X217842Y498816D02*
X236777D01*
X217937Y481266D02*
X236683D01*
X218277Y499266D02*
X236342D01*
X218382Y480816D02*
X236238D01*
X218758Y499716D02*
X235861D01*
X218874Y480366D02*
X235745D01*
X219294Y500166D02*
X235326D01*
X219423Y479916D02*
X235197D01*
X219894Y500616D02*
X234725D01*
X220040Y479466D02*
X234579D01*
X220578Y501066D02*
X234041D01*
X220746Y479016D02*
X233873D01*
X221374Y501516D02*
X233246D01*
X221573Y478566D02*
X233046D01*
X222335Y501966D02*
X232285D01*
X222584Y478116D02*
X232035D01*
X223586Y502416D02*
X231033D01*
X223940Y477666D02*
X230679D01*
X225707Y502866D02*
X228912D01*
X382951Y343098D02*
G03X381373Y335376I10120J-6090D01*
G01X381373*
X383115Y322892*
X383115*
X381545Y315183D02*
G03X383115Y322892I-10128J6077D01*
G01X381545Y315183D02*
X381545D01*
X363829Y285656*
X353701Y279921D02*
G03X363829Y285656I-0J11811D01*
G01X353701Y279921D02*
X219843D01*
X209206Y286597D02*
G03X219843Y279921I10637J5135D01*
G01X209206Y286597D02*
X209206D01*
G03X184000Y311175I-46450J-22424*
G01X143302Y329569*
X143302*
X136274Y347465D02*
G03X143302Y329569I12703J-5339D01*
G01X136274Y347465D02*
X136274D01*
G03X178504Y462992I-136903J115527*
G01Y478740*
X178504*
X193549Y497870D02*
G03X178504Y478740I4640J-19130D01*
G01X193549Y497870D02*
X272725Y517077D01*
G03X302000Y539525I-10756J44340*
G01X302000*
X309772Y545381D02*
G03X302000Y539525I2590J-11523D01*
G01X309772Y545381D02*
X309772D01*
X390810Y563599*
X402290Y558152D02*
G03X390810Y563599I-9219J-4609D01*
G01X402290Y558152D02*
X402290D01*
G03X429800Y548982I18340J9170*
G01X429800*
X435782Y548569D02*
G03X429800Y548982I-3341J-4869D01*
G01X435782Y548569D02*
X435782D01*
X438118Y546967*
X443232Y540270D02*
G03X438118Y546967I-12760J-4444D01*
G01X443232Y540270D02*
X443232D01*
X447340Y434604D02*
G03X443232Y540270I-175135J46104D01*
G01X447340Y434604D02*
X447340D01*
X437957Y398961*
X437957*
X429842Y390630D02*
G03X437957Y398961I-3307J11338D01*
G01X429842Y390630D02*
X412835Y385669D01*
X412835*
G03X404886Y379546I3858J-13228*
G01X382951Y343098*
X382951*
X206063Y474803D02*
G03X206063I-7874J0D01*
G01X243465Y293701D02*
G03X243465I-7874J0D01*
G01X361575D02*
G03X361575I-7874J0D01*
G01X430472Y401968D02*
G03X430472I-7874J0D01*
G01X440315Y514173D02*
G03X440315I-7874J0D01*
G54D14*
G01X263558Y464783D02*
G03X263558I-881J0D01*
G01X236998Y385177D02*
G03X236998I-880J0D01*
G74*
G01X0Y0D02*
M02*
