*
*
G04 PADS VX.2.7 Build Number: 15549477 generated Gerber (RS-274-X) file*
G04 PC Version=2.1*
*
%IN "PAS.pcb"*%
*
%MOIN*%
*
%FSLAX35Y35*%
*
*
*
*
G04 PC Standard Apertures*
*
*
G04 Thermal Relief Aperture macro.*
%AMTER*
1,1,$1,0,0*
1,0,$1-$2,0,0*
21,0,$3,$4,0,0,45*
21,0,$3,$4,0,0,135*
%
*
*
G04 Annular Aperture macro.*
%AMANN*
1,1,$1,0,0*
1,0,$2,0,0*
%
*
*
G04 Odd Aperture macro.*
%AMODD*
1,1,$1,0,0*
1,0,$1-0.005,0,0*
%
*
*
G04 PC Custom Aperture Macros*
*
*
*
*
*
*
G04 PC Aperture Table*
*
%ADD010C,0.001*%
%ADD011C,0.005*%
%ADD013C,0.01*%
*
*
*
*
G04 PC Circuitry*
G04 Layer Name PAS.pcb - circuitry*
%LPD*%
*
*
G04 PC Custom Flashes*
G04 Layer Name PAS.pcb - flashes*
%LPD*%
*
*
G04 PC Circuitry*
G04 Layer Name PAS.pcb - circuitry*
%LPD*%
*
G54D10*
G54D11*
G01X372657Y532513D02*
Y521489D01*
X379744*
Y532513*
X372657*
Y530544D02*
X379744D01*
X254772Y408446D02*
G75*
G03X251630Y408590I-1643J-1499D01*
G01X254772Y408446D02*
Y401951D01*
X251630Y401988D02*
G03X254772Y401951I1592J1792D01*
G01X251630Y401988D02*
Y408590D01*
X242142Y397252D02*
Y409063D01*
X242142D02*
X246348D01*
Y397252*
X242142*
X233126Y403157D02*
X236276D01*
Y410244*
X233126*
Y403157*
X367713Y536244D02*
X356689D01*
Y529157*
X367713*
Y536244*
X365744D02*
Y529157D01*
X359795Y524244D02*
X371606D01*
Y517157*
X359795*
Y524244*
X347626Y526657D02*
X350776D01*
Y533744*
X347626*
Y526657*
X308563Y475583D02*
Y485819D01*
X303839*
Y475583*
X308563*
X212657Y337976D02*
Y334826D01*
X219744*
Y337976*
X212657*
X354776Y527244D02*
X351626D01*
Y520157*
X354776*
Y527244*
X355626Y520157D02*
X358776D01*
Y527244*
X355626*
Y520157*
X263933Y470433D02*
X230469D01*
Y436969*
X263933*
Y470433*
X266886Y473386D02*
X227516D01*
Y434016*
X266886*
Y473386*
X262161Y426535D02*
X262949Y425748D01*
X261374*
X262161Y426535*
X285601Y436651D02*
Y447951D01*
G03X280401I-2600J-2720*
G01Y436651*
G03X285601I2600J2971*
G01X203956Y444272D02*
G03X203812Y441130I1499J-1643D01*
G01X203956Y444272D02*
X210451D01*
X210414Y441130D02*
G03X210451Y444272I-1792J1592D01*
G01X210414Y441130D02*
X203812D01*
X295946Y498130D02*
G03X296090Y501272I-1499J1643D01*
G01X295946Y498130D02*
X289451D01*
X289488Y501272D02*
G03X289451Y498130I1792J-1592D01*
G01X289488Y501272D02*
X296090D01*
X289157Y508276D02*
Y505126D01*
X296244*
Y508276*
X289157*
Y504776D02*
Y501626D01*
X296244*
Y504776*
X289157*
X347272Y525946D02*
G03X344130Y526090I-1643J-1499D01*
G01X347272Y525946D02*
Y519451D01*
X344130Y519488D02*
G03X347272Y519451I1592J1792D01*
G01X344130Y519488D02*
Y526090D01*
X343801Y517551D02*
Y528851D01*
G03X338601I-2600J-2720*
G01Y517551*
G03X343801I2600J2971*
G01X338301D02*
Y528851D01*
G03X333101I-2600J-2720*
G01Y517551*
G03X338301I2600J2971*
G01X325630Y495456D02*
G03X328772Y495312I1643J1499D01*
G01X325630Y495456D02*
Y501951D01*
X328772Y501914D02*
G03X325630Y501951I-1592J-1792D01*
G01X328772Y501914D02*
Y495312D01*
X320101Y504851D02*
Y493551D01*
G03X325301I2600J2719*
G01Y504851*
G03X320101I-2600J-2972*
G01X305402Y498657D02*
X318000D01*
Y505744*
X305402*
Y498657*
X307016Y506606D02*
X318598D01*
Y532795*
X307016*
Y506606*
X229157Y414776D02*
Y411626D01*
X236244*
Y414776*
X229157*
X269946Y488630D02*
G03X270090Y491772I-1499J1643D01*
G01X269946Y488630D02*
X263451D01*
X263488Y491772D02*
G03X263451Y488630I1792J-1592D01*
G01X263488Y491772D02*
X270090D01*
X261851Y493801D02*
X250551D01*
G03Y488601I2719J-2600*
G01X261851*
G03Y493801I-2972J2600*
G01X250946Y496630D02*
G03X251090Y499772I-1499J1643D01*
G01X250946Y496630D02*
X244451D01*
X244488Y499772D02*
G03X244451Y496630I1792J-1592D01*
G01X244488Y499772D02*
X251090D01*
X250946Y501130D02*
G03X251090Y504272I-1499J1643D01*
G01X250946Y501130D02*
X244451D01*
X244488Y504272D02*
G03X244451Y501130I1792J-1592D01*
G01X244488Y504272D02*
X251090D01*
X286827Y465264D02*
X302575D01*
Y473138*
X286827*
Y465264*
X205083Y378839D02*
X215319D01*
Y383563*
X205083*
Y378839*
X229956Y423772D02*
G03X229812Y420630I1499J-1643D01*
G01X229956Y423772D02*
X236451D01*
X236414Y420630D02*
G03X236451Y423772I-1792J1592D01*
G01X236414Y420630D02*
X229812D01*
X237351Y420301D02*
X226051D01*
G03Y415101I2719J-2600*
G01X237351*
G03Y420301I-2972J2600*
G01X187083Y329339D02*
X197319D01*
Y334063*
X187083*
Y329339*
X217301Y464551D02*
Y475851D01*
G03X212101I-2600J-2720*
G01Y464551*
G03X217301I2600J2971*
G01X210083Y401839D02*
X220319D01*
Y406563*
X210083*
Y401839*
X231083Y385839D02*
X241319D01*
Y390563*
X231083*
Y385839*
X223601Y375551D02*
X226201D01*
X228801*
Y386951*
X223601*
Y375551*
X231083Y380839D02*
X241319D01*
Y385563*
X231083*
Y380839*
X230551Y375101D02*
X241851D01*
G03Y380301I-2720J2600*
G01X230551*
G03Y375101I2971J-2600*
G01X222657Y401713D02*
Y390689D01*
X229744*
Y401713*
X222657*
Y399744D02*
X229744D01*
X211276Y494244D02*
X208126D01*
Y487157*
X211276*
Y494244*
X214776D02*
X211626D01*
Y487157*
X214776*
Y494244*
X218276D02*
X215126D01*
Y487157*
X218276*
Y494244*
X259894Y422516D02*
X246508D01*
Y411886*
X259894*
Y422516*
Y417201D02*
X254382D01*
Y412083*
X257925Y411295D02*
X259106Y410114D01*
X256744*
X257925Y411295*
X231551Y497601D02*
X242851D01*
G03Y502801I-2720J2600*
G01X231551*
G03Y497601I2971J-2600*
G01X222456Y501272D02*
G03X222312Y498130I1499J-1643D01*
G01X222456Y501272D02*
X228951D01*
X228914Y498130D02*
G03X228951Y501272I-1792J1592D01*
G01X228914Y498130D02*
X222312D01*
X230244Y486689D02*
G03X230244I-394J0D01*
G01X231701Y493382D02*
Y496701D01*
X230638*
X231701Y490626D02*
Y487701D01*
X231031*
X221701Y493382D02*
Y496701D01*
X222764*
X221701Y490626D02*
Y487701D01*
X222764*
X234657Y506776D02*
Y503626D01*
X241744*
Y506776*
X234657*
X222851Y323101D02*
Y325701D01*
Y328301*
X211451*
Y323101*
X222851*
X223351Y316601D02*
Y319201D01*
Y321801*
X211951*
Y316601*
X223351*
X212051Y311101D02*
X223351D01*
G03Y316301I-2720J2600*
G01X212051*
G03Y311101I2971J-2600*
G01X211551Y328601D02*
X222851D01*
G03Y333801I-2720J2600*
G01X211551*
G03Y328601I2971J-2600*
G01X190130Y312956D02*
G03X193272Y312812I1643J1499D01*
G01X190130Y312956D02*
Y319451D01*
X193272Y319414D02*
G03X190130Y319451I-1592J-1792D01*
G01X193272Y319414D02*
Y312812D01*
X198354Y320606D02*
Y308598D01*
X205047*
Y320606*
X203276*
X198551D02*
X200520D01*
G03X203276I1378J197*
G01X208000Y321394D02*
G03X208000I-787J0D01*
G01X209819Y333563D02*
X199583D01*
Y328839*
X209819*
Y333563*
Y328063D02*
X199583D01*
Y323339*
X209819*
Y328063*
X203351Y378601D02*
Y381201D01*
Y383801*
X191951*
Y378601*
X203351*
Y378301D02*
X192051D01*
G03Y373101I2719J-2600*
G01X203351*
G03Y378301I-2972J2600*
G01X205083Y373339D02*
X215319D01*
Y378063*
X205083*
Y373339*
X319563Y481583D02*
Y491819D01*
X314839*
Y481583*
X319563*
X314301Y475051D02*
Y486351D01*
G03X309101I-2600J-2720*
G01Y475051*
G03X314301I2600J2971*
G01X208351Y406801D02*
X197051D01*
G03Y401601I2719J-2600*
G01X208351*
G03Y406801I-2972J2600*
G01X211851Y420301D02*
X200551D01*
G03Y415101I2719J-2600*
G01X211851*
G03Y420301I-2972J2600*
G01X228051Y345601D02*
X239351D01*
G03Y350801I-2720J2600*
G01X228051*
G03Y345601I2971J-2600*
G01X174051Y323601D02*
X185351D01*
G03Y328801I-2720J2600*
G01X174051*
G03Y323601I2971J-2600*
G01X228051Y334601D02*
X239351D01*
G03Y339801I-2720J2600*
G01X228051*
G03Y334601I2971J-2600*
G01X206351Y392301D02*
X195051D01*
G03Y387101I2719J-2600*
G01X206351*
G03Y392301I-2972J2600*
G01X239351Y361801D02*
X228051D01*
G03Y356601I2719J-2600*
G01X239351*
G03Y361801I-2972J2600*
G01X185351Y339801D02*
X174051D01*
G03Y334601I2719J-2600*
G01X185351*
G03Y339801I-2972J2600*
G01Y350801D02*
X174051D01*
G03Y345601I2719J-2600*
G01X185351*
G03Y350801I-2972J2600*
G01X296965Y474043D02*
X286524D01*
X286327Y474146D02*
Y492256D01*
X296965Y492358D02*
X286524D01*
X208083Y387339D02*
X218319D01*
Y392063*
X208083*
Y387339*
X251319Y361563D02*
X241083D01*
Y356839*
X251319*
Y361563*
X197319Y345063D02*
X187083D01*
Y340339*
X197319*
Y345063*
Y356063D02*
X187083D01*
Y351339*
X197319*
Y356063*
X241083Y351339D02*
X251319D01*
Y356063*
X241083*
Y351339*
X197319Y339563D02*
X187083D01*
Y334839*
X197319*
Y339563*
X187083Y345839D02*
X197319D01*
Y350563*
X187083*
Y345839*
X210083Y407339D02*
X220319D01*
Y412063*
X210083*
Y407339*
X213583Y420839D02*
X223819D01*
Y425563*
X213583*
Y420839*
Y415339D02*
X223819D01*
Y420063*
X213583*
Y415339*
X241083Y340339D02*
X251319D01*
Y345063*
X241083*
Y340339*
X197319Y328563D02*
X187083D01*
Y323839*
X197319*
Y328563*
X241083Y329339D02*
X251319D01*
Y334063*
X241083*
Y329339*
Y345839D02*
X251319D01*
Y350563*
X241083*
Y345839*
Y334839D02*
X251319D01*
Y339563*
X241083*
Y334839*
X208083Y392839D02*
X218319D01*
Y397563*
X208083*
Y392839*
X278701Y498201D02*
Y510201D01*
X268701*
Y498201*
X272520*
Y499140*
X274882D02*
G03X272520I-1181J-591D01*
G01X274882D02*
Y498201D01*
X278701*
X265039Y497902D02*
G03X265039I-787J0D01*
G01X252240Y507319D02*
Y495083D01*
X259161*
Y507319*
X252240*
X208351Y407101D02*
Y409701D01*
Y412301*
X196951*
Y407101*
X208351*
X211851Y420601D02*
Y423201D01*
Y425801*
X200451*
Y420601*
X211851*
X228051Y345301D02*
Y342701D01*
Y340101*
X239451*
Y345301*
X228051*
X174051Y334301D02*
Y331701D01*
Y329101*
X185451*
Y334301*
X174051*
X228051D02*
Y331701D01*
Y329101*
X239451*
Y334301*
X228051*
X206351Y392601D02*
Y395201D01*
Y397801*
X194951*
Y392601*
X206351*
X239351Y351101D02*
Y353701D01*
Y356301*
X227951*
Y351101*
X239351*
X185351Y340101D02*
Y342701D01*
Y345301*
X173951*
Y340101*
X185351*
Y351101D02*
Y353701D01*
Y356301*
X173951*
Y351101*
X185351*
X263772Y419446D02*
G03X260630Y419590I-1643J-1499D01*
G01X263772Y419446D02*
Y412951D01*
X260630Y412988D02*
G03X263772Y412951I1592J1792D01*
G01X260630Y412988D02*
Y419590D01*
X242630Y414956D02*
G03X245772Y414812I1643J1499D01*
G01X242630Y414956D02*
Y421451D01*
X245772Y421414D02*
G03X242630Y421451I-1592J-1792D01*
G01X245772Y421414D02*
Y414812D01*
X264630Y415956D02*
G03X267772Y415812I1643J1499D01*
G01X264630Y415956D02*
Y422451D01*
X267772Y422414D02*
G03X264630Y422451I-1592J-1792D01*
G01X267772Y422414D02*
Y415812D01*
X279772Y444446D02*
G03X276630Y444590I-1643J-1499D01*
G01X279772Y444446D02*
Y437951D01*
X276630Y437988D02*
G03X279772Y437951I1592J1792D01*
G01X276630Y437988D02*
Y444590D01*
X375976Y529757D02*
Y527711D01*
X374569Y524010D02*
X377382D01*
X375976Y525032D02*
Y522987D01*
X364957Y532926D02*
X362911D01*
X359210Y534332D02*
Y531520D01*
X360232Y532926D02*
X358187D01*
X225976Y398957D02*
Y396911D01*
X224569Y393210D02*
X227382D01*
X225976Y394232D02*
Y392187D01*
X382951Y343098D02*
G03X381373Y335376I10120J-6090D01*
G01X381373*
X383115Y322892*
X383115*
X381545Y315183D02*
G03X383115Y322892I-10128J6077D01*
G01X381545Y315183D02*
X381545D01*
X363829Y285656*
X353701Y279921D02*
G03X363829Y285656I-0J11811D01*
G01X353701Y279921D02*
X219843D01*
X209206Y286597D02*
G03X219843Y279921I10637J5135D01*
G01X209206Y286597D02*
X209206D01*
G03X184000Y311175I-46450J-22424*
G01X143302Y329569*
X143302*
X136274Y347465D02*
G03X143302Y329569I12703J-5339D01*
G01X136274Y347465D02*
X136274D01*
G03X178504Y462992I-136903J115527*
G01Y478740*
X178504*
X193549Y497870D02*
G03X178504Y478740I4640J-19130D01*
G01X193549Y497870D02*
X272725Y517077D01*
G03X302000Y539525I-10756J44340*
G01X302000*
X309772Y545381D02*
G03X302000Y539525I2590J-11523D01*
G01X309772Y545381D02*
X309772D01*
X390810Y563599*
X402290Y558152D02*
G03X390810Y563599I-9219J-4609D01*
G01X402290Y558152D02*
X402290D01*
G03X429800Y548982I18340J9170*
G01X429800*
X435782Y548569D02*
G03X429800Y548982I-3341J-4869D01*
G01X435782Y548569D02*
X435782D01*
X438118Y546967*
X443232Y540270D02*
G03X438118Y546967I-12760J-4444D01*
G01X443232Y540270D02*
X443232D01*
X447340Y434604D02*
G03X443232Y540270I-175135J46104D01*
G01X447340Y434604D02*
X447340D01*
X437957Y398961*
X437957*
X429842Y390630D02*
G03X437957Y398961I-3307J11338D01*
G01X429842Y390630D02*
X412835Y385669D01*
X412835*
G03X404886Y379546I3858J-13228*
G01X382951Y343098*
X382951*
X206063Y474803D02*
G03X206063I-7874J0D01*
G01X243465Y293701D02*
G03X243465I-7874J0D01*
G01X361575D02*
G03X361575I-7874J0D01*
G01X430472Y401968D02*
G03X430472I-7874J0D01*
G01X440315Y514173D02*
G03X440315I-7874J0D01*
G54D13*
G01X262358Y439921D02*
G03X262358I-1378J0D01*
G74*
G01X0Y0D02*
M02*
