*
*
G04 PADS VX.2.7 Build Number: 15549477 generated Gerber (RS-274-X) file*
G04 PC Version=2.1*
*
%IN "PAS.pcb"*%
*
%MOIN*%
*
%FSLAX35Y35*%
*
*
*
*
G04 PC Standard Apertures*
*
*
G04 Thermal Relief Aperture macro.*
%AMTER*
1,1,$1,0,0*
1,0,$1-$2,0,0*
21,0,$3,$4,0,0,45*
21,0,$3,$4,0,0,135*
%
*
*
G04 Annular Aperture macro.*
%AMANN*
1,1,$1,0,0*
1,0,$2,0,0*
%
*
*
G04 Odd Aperture macro.*
%AMODD*
1,1,$1,0,0*
1,0,$1-0.005,0,0*
%
*
*
G04 PC Custom Aperture Macros*
*
*
*
*
*
*
G04 PC Aperture Table*
*
%ADD010C,0.001*%
%ADD011C,0.005*%
%ADD016R,0.01968X0.01968*%
%ADD017R,0.03402X0.03173*%
%ADD022R,0.04X0.037*%
%ADD024R,0.037X0.04*%
%ADD031R,0.03173X0.03402*%
%ADD039R,0.03937X0.02362*%
%ADD042R,0.04724X0.04331*%
%ADD070R,0.01181X0.07874*%
%ADD071R,0.07874X0.01181*%
%ADD073R,0.039X0.039*%
%ADD074R,0.039X0.04724*%
%ADD078R,0.09843X0.04331*%
%ADD079R,0.09213X0.14173*%
%ADD192R,0.039X0.04724*%
%ADD196R,0.04528X0.0374*%
%ADD213R,0.04724X0.039*%
%ADD236R,0.0374X0.04528*%
%ADD257R,0.05X0.06*%
%ADD260R,0.06201X0.02646*%
%ADD265R,0.04X0.05*%
%ADD266R,0.01102X0.01969*%
%ADD267R,0.01969X0.01102*%
%ADD269R,0.055X0.01598*%
%ADD270R,0.05118X0.03642*%
*
*
*
*
G04 PC Circuitry*
G04 Layer Name PAS.pcb - circuitry*
%LPD*%
*
*
G04 PC Custom Flashes*
G04 Layer Name PAS.pcb - flashes*
%LPD*%
*
*
G04 PC Circuitry*
G04 Layer Name PAS.pcb - circuitry*
%LPD*%
*
G54D10*
G54D11*
G01X294156Y479514D02*
X283241D01*
X282945Y479693*
X282666Y479896*
X282404Y480121*
X282161Y480367*
X281940Y480631*
X281740Y480913*
X281565Y481211*
X281414Y481522*
X281290Y481844*
X281192Y482175*
X281121Y482513*
X281121D02*
X281079Y482856D01*
X281065Y483201*
X281079Y483546*
X281121Y483889*
X281192Y484227*
X281290Y484558*
X281414Y484880*
X281565Y485191*
X281740Y485488*
X281940Y485770*
X282161Y486035*
X282404Y486281*
X282666Y486506*
X282945Y486709*
X283241Y486888*
X294156*
X294469Y486754*
X294770Y486594*
X295055Y486408*
X295324Y486199*
X295573Y485967*
X295801Y485714*
X296007Y485442*
X296188Y485154*
X296344Y484852*
X296473Y484536*
X296575Y484211*
X296648Y483879*
X296692Y483541*
X296707Y483201*
X296692Y482861*
X296648Y482523*
X296575Y482190*
X296473Y481865*
X296344Y481550*
X296188Y481247*
X296007Y480959*
X295801Y480688*
X295573Y480435*
X295324Y480203*
X295055Y479993*
X294770Y479808*
X294469Y479648*
X294156Y479514*
X281201Y482144D02*
Y484257D01*
X281451Y481446D02*
Y484956D01*
X281701Y480980D02*
Y485421D01*
X281951Y480618D02*
Y485784D01*
X282201Y480326D02*
Y486075D01*
X282451Y480081D02*
Y486321D01*
X282701Y479870D02*
Y486531D01*
X282951Y479690D02*
Y486712D01*
X283201Y479538D02*
Y486864D01*
X283451Y479514D02*
Y486888D01*
X283701Y479514D02*
Y486888D01*
X283951Y479514D02*
Y486888D01*
X284201Y479514D02*
Y486888D01*
X284451Y479514D02*
Y486888D01*
X284701Y479514D02*
Y486888D01*
X284951Y479514D02*
Y486888D01*
X285201Y479514D02*
Y486888D01*
X285451Y479514D02*
Y486888D01*
X285701Y479514D02*
Y486888D01*
X285951Y479514D02*
Y486888D01*
X286201Y479514D02*
Y486888D01*
X286451Y479514D02*
Y486888D01*
X286701Y479514D02*
Y486888D01*
X286951Y479514D02*
Y486888D01*
X287201Y479514D02*
Y486888D01*
X287451Y479514D02*
Y486888D01*
X287701Y479514D02*
Y486888D01*
X287951Y479514D02*
Y486888D01*
X288201Y479514D02*
Y486888D01*
X288451Y479514D02*
Y486888D01*
X288701Y479514D02*
Y486888D01*
X288951Y479514D02*
Y486888D01*
X289201Y479514D02*
Y486888D01*
X289451Y479514D02*
Y486888D01*
X289701Y479514D02*
Y486888D01*
X289951Y479514D02*
Y486888D01*
X290201Y479514D02*
Y486888D01*
X290451Y479514D02*
Y486888D01*
X290701Y479514D02*
Y486888D01*
X290951Y479514D02*
Y486888D01*
X291201Y479514D02*
Y486888D01*
X291451Y479514D02*
Y486888D01*
X291701Y479514D02*
Y486888D01*
X291951Y479514D02*
Y486888D01*
X292201Y479514D02*
Y486888D01*
X292451Y479514D02*
Y486888D01*
X292701Y479514D02*
Y486888D01*
X292951Y479514D02*
Y486888D01*
X293201Y479514D02*
Y486888D01*
X293451Y479514D02*
Y486888D01*
X293701Y479514D02*
Y486888D01*
X293951Y479514D02*
Y486888D01*
X294201Y479533D02*
Y486869D01*
X294451Y479640D02*
Y486762D01*
X294701Y479771D02*
Y486630D01*
X294951Y479926D02*
Y486476D01*
X295201Y480107D02*
Y486294D01*
X295451Y480321D02*
Y486080D01*
X295701Y480577D02*
Y485825D01*
X295951Y480885D02*
Y485516D01*
X296201Y481271D02*
Y485130D01*
X296451Y481810D02*
Y484592D01*
X296701Y483064D02*
Y483337D01*
X382951Y343098D02*
G75*
G03X381373Y335376I10120J-6090D01*
G01X381373*
X383115Y322892*
X383115*
X381545Y315183D02*
G03X383115Y322892I-10128J6077D01*
G01X381545Y315183D02*
X381545D01*
X363829Y285656*
X353701Y279921D02*
G03X363829Y285656I-0J11811D01*
G01X353701Y279921D02*
X219843D01*
X209206Y286597D02*
G03X219843Y279921I10637J5135D01*
G01X209206Y286597D02*
X209206D01*
G03X184000Y311175I-46450J-22424*
G01X143302Y329569*
X143302*
X136274Y347465D02*
G03X143302Y329569I12703J-5339D01*
G01X136274Y347465D02*
X136274D01*
G03X178504Y462992I-136903J115527*
G01Y478740*
X178504*
X193549Y497870D02*
G03X178504Y478740I4640J-19130D01*
G01X193549Y497870D02*
X272725Y517077D01*
G03X302000Y539525I-10756J44340*
G01X302000*
X309772Y545381D02*
G03X302000Y539525I2590J-11523D01*
G01X309772Y545381D02*
X309772D01*
X390810Y563599*
X402290Y558152D02*
G03X390810Y563599I-9219J-4609D01*
G01X402290Y558152D02*
X402290D01*
G03X429800Y548982I18340J9170*
G01X429800*
X435782Y548569D02*
G03X429800Y548982I-3341J-4869D01*
G01X435782Y548569D02*
X435782D01*
X438118Y546967*
X443232Y540270D02*
G03X438118Y546967I-12760J-4444D01*
G01X443232Y540270D02*
X443232D01*
X447340Y434604D02*
G03X443232Y540270I-175135J46104D01*
G01X447340Y434604D02*
X447340D01*
X437957Y398961*
X437957*
X429842Y390630D02*
G03X437957Y398961I-3307J11338D01*
G01X429842Y390630D02*
X412835Y385669D01*
X412835*
G03X404886Y379546I3858J-13228*
G01X382951Y343098*
X382951*
X206063Y474803D02*
G03X206063I-7874J0D01*
G01X243465Y293701D02*
G03X243465I-7874J0D01*
G01X361575D02*
G03X361575I-7874J0D01*
G01X430472Y401968D02*
G03X430472I-7874J0D01*
G01X440315Y514173D02*
G03X440315I-7874J0D01*
G54D16*
G01X253201Y403232D03*
Y407169D03*
X234701Y404732D03*
Y408669D03*
X349201Y528232D03*
Y532169D03*
X214232Y336401D03*
X218169D03*
X353201Y525669D03*
Y521732D03*
X357201D03*
Y525669D03*
X209169Y442701D03*
X205232D03*
X290732Y499701D03*
X294669D03*
X290732Y506701D03*
X294669D03*
X290732Y503201D03*
X294669D03*
X345701Y520732D03*
Y524669D03*
X327201Y500669D03*
Y496732D03*
X230732Y413201D03*
X234669D03*
X264732Y490201D03*
X268669D03*
X245732Y498201D03*
X249669D03*
X245732Y502701D03*
X249669D03*
X235169Y422201D03*
X231232D03*
X209701Y492669D03*
Y488732D03*
X213201Y492669D03*
Y488732D03*
X216701Y492669D03*
Y488732D03*
X227669Y499701D03*
X223732D03*
X236232Y505201D03*
X240169D03*
X191701Y318169D03*
Y314232D03*
X262201Y414232D03*
Y418169D03*
X244201Y420169D03*
Y416232D03*
X266201Y421169D03*
Y417232D03*
X278201Y439232D03*
Y443169D03*
G54D17*
X306201Y477736D03*
Y483665D03*
X317201Y483736D03*
Y489665D03*
G54D22*
X283001Y439051D03*
Y445551D03*
X341201Y519951D03*
Y526451D03*
X335701Y519951D03*
Y526451D03*
X322701Y502451D03*
Y495951D03*
X214701Y466951D03*
Y473451D03*
X226201Y377951D03*
Y384451D03*
X311701Y477451D03*
Y483951D03*
G54D24*
X259451Y491201D03*
X252951D03*
X234951Y417701D03*
X228451D03*
X232951Y377701D03*
X239451D03*
X233951Y500201D03*
X240451D03*
X220451Y325701D03*
X213951D03*
X220951Y319201D03*
X214451D03*
Y313701D03*
X220951D03*
X213951Y331201D03*
X220451D03*
X200951Y381201D03*
X194451D03*
X200951Y375701D03*
X194451D03*
X205951Y404201D03*
X199451D03*
X209451Y417701D03*
X202951D03*
X230451Y348201D03*
X236951D03*
X176451Y326201D03*
X182951D03*
X230451Y337201D03*
X236951D03*
X203951Y389701D03*
X197451D03*
X236951Y359201D03*
X230451D03*
X182951Y337201D03*
X176451D03*
X182951Y348201D03*
X176451D03*
X205951Y409701D03*
X199451D03*
X209451Y423201D03*
X202951D03*
X230451Y342701D03*
X236951D03*
X176451Y331701D03*
X182951D03*
X230451D03*
X236951D03*
X203951Y395201D03*
X197451D03*
X236951Y353701D03*
X230451D03*
X182951Y342701D03*
X176451D03*
X182951Y353701D03*
X176451D03*
G54D31*
X207236Y381201D03*
X213165D03*
X189236Y331701D03*
X195165D03*
X212236Y404201D03*
X218165D03*
X233236Y388201D03*
X239165D03*
X233236Y383201D03*
X239165D03*
X207665Y331201D03*
X201736D03*
X207665Y325701D03*
X201736D03*
X207236Y375701D03*
X213165D03*
X210236Y389701D03*
X216165D03*
X249165Y359201D03*
X243236D03*
X195165Y342701D03*
X189236D03*
X195165Y353701D03*
X189236D03*
X243236D03*
X249165D03*
X195165Y337201D03*
X189236D03*
Y348201D03*
X195165D03*
X212236Y409701D03*
X218165D03*
X215736Y423201D03*
X221665D03*
X215736Y417701D03*
X221665D03*
X243236Y342701D03*
X249165D03*
X195165Y326201D03*
X189236D03*
X243236Y331701D03*
X249165D03*
X243236Y348201D03*
X249165D03*
X243236Y337201D03*
X249165D03*
X210236Y395201D03*
X216165D03*
G54D39*
X206701Y318441D03*
Y314701D03*
Y310961D03*
X196701D03*
Y318441D03*
G54D42*
X257531Y414051D03*
X248870D03*
Y420350D03*
X257531D03*
G54D70*
X261965Y431063D03*
X259996D03*
X258028D03*
X256059D03*
X254091D03*
X252122D03*
X250154D03*
X248185D03*
X246217D03*
X244248D03*
X242280D03*
X240311D03*
X238343D03*
X236374D03*
X234406D03*
X232437D03*
Y476339D03*
X234406D03*
X236374D03*
X238343D03*
X240311D03*
X242280D03*
X244248D03*
X246217D03*
X248185D03*
X250154D03*
X252122D03*
X254091D03*
X256059D03*
X258028D03*
X259996D03*
X261965D03*
G54D71*
X224563Y438937D03*
Y440906D03*
Y442874D03*
Y444843D03*
Y446811D03*
Y448780D03*
Y450748D03*
Y452717D03*
Y454685D03*
Y456654D03*
Y458622D03*
Y460591D03*
Y462559D03*
Y464528D03*
Y466496D03*
Y468465D03*
X269839D03*
Y466496D03*
Y464528D03*
Y462559D03*
Y460591D03*
Y458622D03*
Y456654D03*
Y454685D03*
Y452717D03*
Y450748D03*
Y448780D03*
Y446811D03*
Y444843D03*
Y442874D03*
Y440906D03*
Y438937D03*
G54D73*
X239551Y399401D03*
Y407001D03*
G54D74*
X365701Y515839D03*
G54D78*
X324894Y528756D03*
Y519701D03*
Y510646D03*
G54D79*
X301508Y519701D03*
G54D192*
X361961Y525563D03*
X369441D03*
G54D196*
X376201Y533662D03*
Y520339D03*
X226201Y402862D03*
Y389539D03*
G54D213*
X248457Y403201D03*
G54D236*
X368862Y532701D03*
X355539D03*
G54D257*
X290101Y469201D03*
X299301D03*
G54D260*
X299539Y489106D03*
Y483201D03*
Y477295D03*
G54D265*
X308201Y502201D03*
X315201D03*
G54D266*
X229654Y488756D03*
X227685D03*
X225717D03*
X223748D03*
Y495646D03*
X225717D03*
X227685D03*
X229654D03*
G54D267*
X223256Y491217D03*
Y493185D03*
X230146D03*
Y491217D03*
G54D269*
X264646Y500362D03*
Y502921D03*
Y505480D03*
Y508039D03*
X282756D03*
Y505480D03*
Y502921D03*
Y500362D03*
G54D270*
X255701Y504598D03*
Y497803D03*
G74*
X0Y0D02*
M02*
