*
*
G04 PADS VX.2.7 Build Number: 15549477 generated Gerber (RS-274-X) file*
G04 PC Version=2.1*
*
%IN "PAS.pcb"*%
*
%MOIN*%
*
%FSLAX35Y35*%
*
*
*
*
G04 PC Standard Apertures*
*
*
G04 Thermal Relief Aperture macro.*
%AMTER*
1,1,$1,0,0*
1,0,$1-$2,0,0*
21,0,$3,$4,0,0,45*
21,0,$3,$4,0,0,135*
%
*
*
G04 Annular Aperture macro.*
%AMANN*
1,1,$1,0,0*
1,0,$2,0,0*
%
*
*
G04 Odd Aperture macro.*
%AMODD*
1,1,$1,0,0*
1,0,$1-0.005,0,0*
%
*
*
G04 PC Custom Aperture Macros*
*
*
*
*
*
*
G04 PC Aperture Table*
*
%ADD010C,0.001*%
%ADD011C,0.005*%
%ADD117R,0.02368X0.02368*%
%ADD118R,0.03802X0.03573*%
%ADD123R,0.044X0.041*%
%ADD125R,0.041X0.044*%
%ADD132R,0.03573X0.03802*%
%ADD140R,0.04337X0.02762*%
%ADD143R,0.05124X0.04731*%
%ADD167R,0.064X0.064*%
%ADD168C,0.064*%
%ADD171R,0.01581X0.08274*%
%ADD172R,0.08274X0.01581*%
%ADD174R,0.043X0.043*%
%ADD175R,0.043X0.05124*%
%ADD179R,0.10243X0.04731*%
%ADD180R,0.09613X0.14573*%
%ADD200R,0.043X0.05124*%
%ADD204R,0.04928X0.0414*%
%ADD219R,0.05124X0.043*%
%ADD243R,0.0414X0.04928*%
%ADD275C,0.09061*%
%ADD276C,0.16148*%
%ADD278R,0.054X0.064*%
%ADD281R,0.06601X0.03046*%
%ADD284R,0.044X0.054*%
%ADD285R,0.01502X0.02369*%
%ADD286R,0.02369X0.01502*%
%ADD288R,0.059X0.01998*%
%ADD289R,0.05518X0.04042*%
*
*
*
*
G04 PC Circuitry*
G04 Layer Name PAS.pcb - circuitry*
%LPD*%
*
*
G04 PC Custom Flashes*
G04 Layer Name PAS.pcb - flashes*
%LPD*%
*
*
G04 PC Circuitry*
G04 Layer Name PAS.pcb - circuitry*
%LPD*%
*
G54D10*
G01X176683Y375461D02*
X175088Y369366D01*
X181183Y367772*
X182778Y373866*
X176683Y375461*
X181183Y367772D02*
X181183D01*
X180801Y367872D02*
X181209D01*
X180419Y367972D02*
X181235D01*
X180037Y368072D02*
X181261D01*
X179654Y368172D02*
X181288D01*
X179272Y368272D02*
X181314D01*
X178890Y368372D02*
X181340D01*
X178508Y368472D02*
X181366D01*
X178126Y368572D02*
X181392D01*
X177744Y368672D02*
X181418D01*
X177361Y368772D02*
X181445D01*
X176979Y368872D02*
X181471D01*
X176597Y368972D02*
X181497D01*
X176215Y369072D02*
X181523D01*
X175833Y369172D02*
X181549D01*
X175451Y369272D02*
X181575D01*
X175090Y369372D02*
X181602D01*
X175116Y369472D02*
X181628D01*
X175142Y369572D02*
X181654D01*
X175168Y369672D02*
X181680D01*
X175194Y369772D02*
X181706D01*
X175220Y369872D02*
X181733D01*
X175247Y369972D02*
X181759D01*
X175273Y370072D02*
X181785D01*
X175299Y370172D02*
X181811D01*
X175325Y370272D02*
X181837D01*
X175351Y370372D02*
X181863D01*
X175377Y370472D02*
X181890D01*
X175404Y370572D02*
X181916D01*
X175430Y370672D02*
X181942D01*
X175456Y370772D02*
X181968D01*
X175482Y370872D02*
X181994D01*
X175508Y370972D02*
X182020D01*
X175534Y371072D02*
X182047D01*
X175561Y371172D02*
X182073D01*
X175587Y371272D02*
X182099D01*
X175613Y371372D02*
X182125D01*
X175639Y371472D02*
X182151D01*
X175665Y371572D02*
X182177D01*
X175691Y371672D02*
X182204D01*
X175718Y371772D02*
X182230D01*
X175744Y371872D02*
X182256D01*
X175770Y371972D02*
X182282D01*
X175796Y372072D02*
X182308D01*
X175822Y372172D02*
X182334D01*
X175848Y372272D02*
X182361D01*
X175875Y372372D02*
X182387D01*
X175901Y372472D02*
X182413D01*
X175927Y372572D02*
X182439D01*
X175953Y372672D02*
X182465D01*
X175979Y372772D02*
X182491D01*
X176005Y372872D02*
X182518D01*
X176032Y372972D02*
X182544D01*
X176058Y373072D02*
X182570D01*
X176084Y373172D02*
X182596D01*
X176110Y373272D02*
X182622D01*
X176136Y373372D02*
X182648D01*
X176162Y373472D02*
X182675D01*
X176189Y373572D02*
X182701D01*
X176215Y373672D02*
X182727D01*
X176241Y373772D02*
X182753D01*
X176267Y373872D02*
X182758D01*
X176293Y373972D02*
X182376D01*
X176319Y374072D02*
X181994D01*
X176346Y374172D02*
X181611D01*
X176372Y374272D02*
X181229D01*
X176398Y374372D02*
X180847D01*
X176424Y374472D02*
X180465D01*
X176450Y374572D02*
X180083D01*
X176476Y374672D02*
X179701D01*
X176503Y374772D02*
X179319D01*
X176529Y374872D02*
X178936D01*
X176555Y374972D02*
X178554D01*
X176581Y375072D02*
X178172D01*
X176607Y375172D02*
X177790D01*
X176633Y375272D02*
X177408D01*
X176660Y375372D02*
X177026D01*
X175088Y369366D02*
X175088D01*
X175188Y369340D02*
Y369749D01*
X175288Y369314D02*
Y370131D01*
X175388Y369288D02*
Y370513D01*
X175488Y369262D02*
Y370895D01*
X175588Y369236D02*
Y371277D01*
X175688Y369209D02*
Y371659D01*
X175788Y369183D02*
Y372042D01*
X175888Y369157D02*
Y372424D01*
X175988Y369131D02*
Y372806D01*
X176088Y369105D02*
Y373188D01*
X176188Y369079D02*
Y373570D01*
X176288Y369052D02*
Y373952D01*
X176388Y369026D02*
Y374335D01*
X176488Y369000D02*
Y374717D01*
X176588Y368974D02*
Y375099D01*
X176688Y368948D02*
Y375460D01*
X176788Y368922D02*
Y375434D01*
X176888Y368895D02*
Y375408D01*
X176988Y368869D02*
Y375381D01*
X177088Y368843D02*
Y375355D01*
X177188Y368817D02*
Y375329D01*
X177288Y368791D02*
Y375303D01*
X177388Y368765D02*
Y375277D01*
X177488Y368738D02*
Y375251D01*
X177588Y368712D02*
Y375224D01*
X177688Y368686D02*
Y375198D01*
X177788Y368660D02*
Y375172D01*
X177888Y368634D02*
Y375146D01*
X177988Y368608D02*
Y375120D01*
X178088Y368581D02*
Y375094D01*
X178188Y368555D02*
Y375067D01*
X178288Y368529D02*
Y375041D01*
X178388Y368503D02*
Y375015D01*
X178488Y368477D02*
Y374989D01*
X178588Y368451D02*
Y374963D01*
X178688Y368424D02*
Y374937D01*
X178788Y368398D02*
Y374910D01*
X178888Y368372D02*
Y374884D01*
X178988Y368346D02*
Y374858D01*
X179088Y368320D02*
Y374832D01*
X179188Y368294D02*
Y374806D01*
X179288Y368267D02*
Y374780D01*
X179388Y368241D02*
Y374753D01*
X179488Y368215D02*
Y374727D01*
X179588Y368189D02*
Y374701D01*
X179688Y368163D02*
Y374675D01*
X179788Y368137D02*
Y374649D01*
X179888Y368110D02*
Y374623D01*
X179988Y368084D02*
Y374596D01*
X180088Y368058D02*
Y374570D01*
X180188Y368032D02*
Y374544D01*
X180288Y368006D02*
Y374518D01*
X180388Y367980D02*
Y374492D01*
X180488Y367953D02*
Y374466D01*
X180588Y367927D02*
Y374439D01*
X180688Y367901D02*
Y374413D01*
X180788Y367875D02*
Y374387D01*
X180888Y367849D02*
Y374361D01*
X180988Y367823D02*
Y374335D01*
X181088Y367796D02*
Y374309D01*
X181188Y367792D02*
Y374282D01*
X181288Y368174D02*
Y374256D01*
X181388Y368556D02*
Y374230D01*
X181488Y368938D02*
Y374204D01*
X181588Y369320D02*
Y374178D01*
X181688Y369702D02*
Y374152D01*
X181788Y370084D02*
Y374125D01*
X181888Y370467D02*
Y374099D01*
X181988Y370849D02*
Y374073D01*
X182088Y371231D02*
Y374047D01*
X182188Y371613D02*
Y374021D01*
X182288Y371995D02*
Y373995D01*
X182388Y372377D02*
Y373968D01*
X182488Y372760D02*
Y373942D01*
X182588Y373142D02*
Y373916D01*
X182688Y373524D02*
Y373890D01*
X157569Y340860D02*
X154006Y335663D01*
X159202Y332101*
X162765Y337297*
X157569Y340860*
X159202Y332101D02*
X159202D01*
X159057Y332201D02*
X159271D01*
X158911Y332301D02*
X159340D01*
X158765Y332401D02*
X159408D01*
X158619Y332501D02*
X159477D01*
X158473Y332601D02*
X159545D01*
X158327Y332701D02*
X159614D01*
X158181Y332801D02*
X159682D01*
X158036Y332901D02*
X159751D01*
X157890Y333001D02*
X159819D01*
X157744Y333101D02*
X159888D01*
X157598Y333201D02*
X159957D01*
X157452Y333301D02*
X160025D01*
X157306Y333401D02*
X160094D01*
X157160Y333501D02*
X160162D01*
X157014Y333601D02*
X160231D01*
X156869Y333701D02*
X160299D01*
X156723Y333801D02*
X160368D01*
X156577Y333901D02*
X160436D01*
X156431Y334001D02*
X160505D01*
X156285Y334101D02*
X160574D01*
X156139Y334201D02*
X160642D01*
X155993Y334301D02*
X160711D01*
X155848Y334401D02*
X160779D01*
X155702Y334501D02*
X160848D01*
X155556Y334601D02*
X160916D01*
X155410Y334701D02*
X160985D01*
X155264Y334801D02*
X161053D01*
X155118Y334901D02*
X161122D01*
X154972Y335001D02*
X161191D01*
X154827Y335101D02*
X161259D01*
X154681Y335201D02*
X161328D01*
X154535Y335301D02*
X161396D01*
X154389Y335401D02*
X161465D01*
X154243Y335501D02*
X161533D01*
X154097Y335601D02*
X161602D01*
X154032Y335701D02*
X161671D01*
X154101Y335801D02*
X161739D01*
X154169Y335901D02*
X161808D01*
X154238Y336001D02*
X161876D01*
X154306Y336101D02*
X161945D01*
X154375Y336201D02*
X162013D01*
X154443Y336301D02*
X162082D01*
X154512Y336401D02*
X162150D01*
X154581Y336501D02*
X162219D01*
X154649Y336601D02*
X162288D01*
X154718Y336701D02*
X162356D01*
X154786Y336801D02*
X162425D01*
X154855Y336901D02*
X162493D01*
X154923Y337001D02*
X162562D01*
X154992Y337101D02*
X162630D01*
X155060Y337201D02*
X162699D01*
X155129Y337301D02*
X162759D01*
X155198Y337401D02*
X162613D01*
X155266Y337501D02*
X162467D01*
X155335Y337601D02*
X162322D01*
X155403Y337701D02*
X162176D01*
X155472Y337801D02*
X162030D01*
X155540Y337901D02*
X161884D01*
X155609Y338001D02*
X161738D01*
X155677Y338101D02*
X161592D01*
X155746Y338201D02*
X161446D01*
X155815Y338301D02*
X161300D01*
X155883Y338401D02*
X161155D01*
X155952Y338501D02*
X161009D01*
X156020Y338601D02*
X160863D01*
X156089Y338701D02*
X160717D01*
X156157Y338801D02*
X160571D01*
X156226Y338901D02*
X160425D01*
X156295Y339001D02*
X160279D01*
X156363Y339101D02*
X160134D01*
X156432Y339201D02*
X159988D01*
X156500Y339301D02*
X159842D01*
X156569Y339401D02*
X159696D01*
X156637Y339501D02*
X159550D01*
X156706Y339601D02*
X159404D01*
X156774Y339701D02*
X159258D01*
X156843Y339801D02*
X159113D01*
X156912Y339901D02*
X158967D01*
X156980Y340001D02*
X158821D01*
X157049Y340101D02*
X158675D01*
X157117Y340201D02*
X158529D01*
X157186Y340301D02*
X158383D01*
X157254Y340401D02*
X158237D01*
X157323Y340501D02*
X158092D01*
X157391Y340601D02*
X157946D01*
X157460Y340701D02*
X157800D01*
X157529Y340801D02*
X157654D01*
X154006Y335663D02*
X154006D01*
X154106Y335595D02*
Y335809D01*
X154206Y335526D02*
Y335955D01*
X154306Y335458D02*
Y336101D01*
X154406Y335389D02*
Y336247D01*
X154506Y335321D02*
Y336393D01*
X154606Y335252D02*
Y336539D01*
X154706Y335183D02*
Y336684D01*
X154806Y335115D02*
Y336830D01*
X154906Y335046D02*
Y336976D01*
X155006Y334978D02*
Y337122D01*
X155106Y334909D02*
Y337268D01*
X155206Y334841D02*
Y337414D01*
X155306Y334772D02*
Y337560D01*
X155406Y334704D02*
Y337705D01*
X155506Y334635D02*
Y337851D01*
X155606Y334566D02*
Y337997D01*
X155706Y334498D02*
Y338143D01*
X155806Y334429D02*
Y338289D01*
X155906Y334361D02*
Y338435D01*
X156006Y334292D02*
Y338581D01*
X156106Y334224D02*
Y338726D01*
X156206Y334155D02*
Y338872D01*
X156306Y334087D02*
Y339018D01*
X156406Y334018D02*
Y339164D01*
X156506Y333949D02*
Y339310D01*
X156606Y333881D02*
Y339456D01*
X156706Y333812D02*
Y339602D01*
X156806Y333744D02*
Y339748D01*
X156906Y333675D02*
Y339893D01*
X157006Y333607D02*
Y340039D01*
X157106Y333538D02*
Y340185D01*
X157206Y333470D02*
Y340331D01*
X157306Y333401D02*
Y340477D01*
X157406Y333332D02*
Y340623D01*
X157506Y333264D02*
Y340769D01*
X157606Y333195D02*
Y340834D01*
X157706Y333127D02*
Y340765D01*
X157806Y333058D02*
Y340697D01*
X157906Y332990D02*
Y340628D01*
X158006Y332921D02*
Y340559D01*
X158106Y332852D02*
Y340491D01*
X158206Y332784D02*
Y340422D01*
X158306Y332715D02*
Y340354D01*
X158406Y332647D02*
Y340285D01*
X158506Y332578D02*
Y340217D01*
X158606Y332510D02*
Y340148D01*
X158706Y332441D02*
Y340080D01*
X158806Y332373D02*
Y340011D01*
X158906Y332304D02*
Y339942D01*
X159006Y332235D02*
Y339874D01*
X159106Y332167D02*
Y339805D01*
X159206Y332107D02*
Y339737D01*
X159306Y332253D02*
Y339668D01*
X159406Y332398D02*
Y339600D01*
X159506Y332544D02*
Y339531D01*
X159606Y332690D02*
Y339463D01*
X159706Y332836D02*
Y339394D01*
X159806Y332982D02*
Y339325D01*
X159906Y333128D02*
Y339257D01*
X160006Y333274D02*
Y339188D01*
X160106Y333419D02*
Y339120D01*
X160206Y333565D02*
Y339051D01*
X160306Y333711D02*
Y338983D01*
X160406Y333857D02*
Y338914D01*
X160506Y334003D02*
Y338846D01*
X160606Y334149D02*
Y338777D01*
X160706Y334295D02*
Y338708D01*
X160806Y334440D02*
Y338640D01*
X160906Y334586D02*
Y338571D01*
X161006Y334732D02*
Y338503D01*
X161106Y334878D02*
Y338434D01*
X161206Y335024D02*
Y338366D01*
X161306Y335170D02*
Y338297D01*
X161406Y335316D02*
Y338228D01*
X161506Y335462D02*
Y338160D01*
X161606Y335607D02*
Y338091D01*
X161706Y335753D02*
Y338023D01*
X161806Y335899D02*
Y337954D01*
X161906Y336045D02*
Y337886D01*
X162006Y336191D02*
Y337817D01*
X162106Y336337D02*
Y337749D01*
X162206Y336483D02*
Y337680D01*
X162306Y336628D02*
Y337611D01*
X162406Y336774D02*
Y337543D01*
X162506Y336920D02*
Y337474D01*
X162606Y337066D02*
Y337406D01*
X162706Y337212D02*
Y337337D01*
G54D11*
X294192Y479314D02*
X283190D01*
X282875Y479500*
X282577Y479712*
X282297Y479947*
X282038Y480205*
X281801Y480484*
X281588Y480781*
X281400Y481095*
X281239Y481423*
X281105Y481764*
X281001Y482115*
X280925Y482472*
X280925D02*
X280880Y482835D01*
X280865Y483201*
X280880Y483566*
X280925Y483929*
X280925D02*
X281001Y484287D01*
X281105Y484638*
X281239Y484978*
X281400Y485306*
X281588Y485620*
X281801Y485918*
X282038Y486196*
X282297Y486454*
X282577Y486690*
X282875Y486902*
X283190Y487088*
X294192*
X294513Y486954*
X294822Y486794*
X295117Y486609*
X295395Y486400*
X295654Y486167*
X295893Y485914*
X296110Y485642*
X296303Y485353*
X296472Y485048*
X296614Y484730*
X296729Y484402*
X296816Y484065*
X296874Y483722*
X296903Y483375*
Y483027*
X296874Y482680*
X296816Y482337*
X296729Y482000*
X296614Y481671*
X296472Y481354*
X296303Y481049*
X296110Y480759*
X295893Y480487*
X295654Y480234*
X295395Y480002*
X295117Y479793*
X294822Y479607*
X294513Y479447*
X294192Y479314*
X280951Y482352D02*
Y484049D01*
X281201Y481521D02*
Y484881D01*
X281451Y481010D02*
Y485392D01*
X281701Y480623D02*
Y485778D01*
X281951Y480307D02*
Y486094D01*
X282201Y480043D02*
Y486359D01*
X282451Y479818D02*
Y486584D01*
X282701Y479624D02*
Y486778D01*
X282951Y479455D02*
Y486946D01*
X283201Y479314D02*
Y487088D01*
X283451Y479314D02*
Y487088D01*
X283701Y479314D02*
Y487088D01*
X283951Y479314D02*
Y487088D01*
X284201Y479314D02*
Y487088D01*
X284451Y479314D02*
Y487088D01*
X284701Y479314D02*
Y487088D01*
X284951Y479314D02*
Y487088D01*
X285201Y479314D02*
Y487088D01*
X285451Y479314D02*
Y487088D01*
X285701Y479314D02*
Y487088D01*
X285951Y479314D02*
Y487088D01*
X286201Y479314D02*
Y487088D01*
X286451Y479314D02*
Y487088D01*
X286701Y479314D02*
Y487088D01*
X286951Y479314D02*
Y487088D01*
X287201Y479314D02*
Y487088D01*
X287451Y479314D02*
Y487088D01*
X287701Y479314D02*
Y487088D01*
X287951Y479314D02*
Y487088D01*
X288201Y479314D02*
Y487088D01*
X288451Y479314D02*
Y487088D01*
X288701Y479314D02*
Y487088D01*
X288951Y479314D02*
Y487088D01*
X289201Y479314D02*
Y487088D01*
X289451Y479314D02*
Y487088D01*
X289701Y479314D02*
Y487088D01*
X289951Y479314D02*
Y487088D01*
X290201Y479314D02*
Y487088D01*
X290451Y479314D02*
Y487088D01*
X290701Y479314D02*
Y487088D01*
X290951Y479314D02*
Y487088D01*
X291201Y479314D02*
Y487088D01*
X291451Y479314D02*
Y487088D01*
X291701Y479314D02*
Y487088D01*
X291951Y479314D02*
Y487088D01*
X292201Y479314D02*
Y487088D01*
X292451Y479314D02*
Y487088D01*
X292701Y479314D02*
Y487088D01*
X292951Y479314D02*
Y487088D01*
X293201Y479314D02*
Y487088D01*
X293451Y479314D02*
Y487088D01*
X293701Y479314D02*
Y487088D01*
X293951Y479314D02*
Y487088D01*
X294201Y479317D02*
Y487084D01*
X294451Y479421D02*
Y486980D01*
X294701Y479544D02*
Y486857D01*
X294951Y479688D02*
Y486714D01*
X295201Y479856D02*
Y486546D01*
X295451Y480052D02*
Y486350D01*
X295701Y480283D02*
Y486118D01*
X295951Y480559D02*
Y485842D01*
X296201Y480895D02*
Y485507D01*
X296451Y481316D02*
Y485086D01*
X296701Y481920D02*
Y484482D01*
X359951Y386788D02*
Y387079D01*
X320744Y417849*
X309050Y402744*
X336787Y380951*
X347288*
X352162Y377052*
X359951Y386788*
X390451Y425788D02*
Y426079D01*
X351244Y456849*
X339550Y441744*
X367287Y419951*
X377788*
X382662Y416052*
X390451Y425788*
X420451Y465788D02*
Y466079D01*
X381244Y496849*
X369550Y481744*
X397287Y459951*
X407788*
X412662Y456052*
X420451Y465788*
X355052Y367746D02*
X428744Y462849D01*
X442353Y452156*
X369654Y356552*
X355052Y367746*
X329151Y386951D02*
X359951D01*
X329724Y386501D02*
X359721D01*
X328578Y387401D02*
X359541D01*
X330296Y386051D02*
X359361D01*
X330869Y385601D02*
X359001D01*
X328005Y387851D02*
X358968D01*
X331442Y385151D02*
X358641D01*
X327433Y388301D02*
X358394D01*
X332014Y384701D02*
X358281D01*
X332587Y384251D02*
X357921D01*
X326860Y388751D02*
X357821D01*
X333160Y383801D02*
X357561D01*
X326287Y389201D02*
X357247D01*
X333733Y383351D02*
X357201D01*
X334305Y382901D02*
X356841D01*
X325714Y389651D02*
X356674D01*
X334878Y382451D02*
X356481D01*
X335451Y382001D02*
X356121D01*
X325142Y390101D02*
X356101D01*
X336024Y381551D02*
X355761D01*
X324569Y390551D02*
X355527D01*
X336596Y381101D02*
X355401D01*
X347663Y380651D02*
X355041D01*
X323996Y391001D02*
X354954D01*
X348226Y380201D02*
X354681D01*
X323424Y391451D02*
X354380D01*
X348788Y379751D02*
X354321D01*
X349351Y379301D02*
X353961D01*
X322851Y391901D02*
X353807D01*
X349913Y378851D02*
X353601D01*
X350476Y378401D02*
X353241D01*
X322278Y392351D02*
X353234D01*
X351038Y377951D02*
X352881D01*
X321705Y392801D02*
X352660D01*
X351601Y377501D02*
X352521D01*
X321133Y393251D02*
X352087D01*
X320560Y393701D02*
X351513D01*
X319987Y394151D02*
X350940D01*
X319414Y394601D02*
X350367D01*
X318842Y395051D02*
X349793D01*
X318269Y395501D02*
X349220D01*
X317696Y395951D02*
X348647D01*
X317124Y396401D02*
X348073D01*
X316551Y396851D02*
X347500D01*
X315978Y397301D02*
X346926D01*
X315405Y397751D02*
X346353D01*
X314833Y398201D02*
X345780D01*
X314260Y398651D02*
X345206D01*
X313687Y399101D02*
X344633D01*
X313114Y399551D02*
X344059D01*
X312542Y400001D02*
X343486D01*
X311969Y400451D02*
X342913D01*
X311396Y400901D02*
X342339D01*
X310824Y401351D02*
X341766D01*
X310251Y401801D02*
X341193D01*
X309678Y402251D02*
X340619D01*
X309105Y402701D02*
X340046D01*
X309365Y403151D02*
X339472D01*
X309714Y403601D02*
X338899D01*
X310062Y404051D02*
X338326D01*
X310411Y404501D02*
X337752D01*
X310759Y404951D02*
X337179D01*
X311107Y405401D02*
X336605D01*
X311456Y405851D02*
X336032D01*
X311804Y406301D02*
X335459D01*
X312152Y406751D02*
X334885D01*
X312501Y407201D02*
X334312D01*
X312849Y407651D02*
X333739D01*
X313198Y408101D02*
X333165D01*
X313546Y408551D02*
X332592D01*
X313894Y409001D02*
X332018D01*
X314243Y409451D02*
X331445D01*
X314591Y409901D02*
X330872D01*
X314940Y410351D02*
X330298D01*
X315288Y410801D02*
X329725D01*
X315636Y411251D02*
X329151D01*
X315985Y411701D02*
X328578D01*
X316333Y412151D02*
X328005D01*
X316682Y412601D02*
X327431D01*
X317030Y413051D02*
X326858D01*
X317378Y413501D02*
X326284D01*
X317727Y413951D02*
X325711D01*
X318075Y414401D02*
X325138D01*
X318423Y414851D02*
X324564D01*
X318772Y415301D02*
X323991D01*
X319120Y415751D02*
X323418D01*
X319469Y416201D02*
X322844D01*
X319817Y416651D02*
X322271D01*
X320165Y417101D02*
X321697D01*
X320514Y417551D02*
X321124D01*
X359651Y425951D02*
X390451D01*
X360224Y425501D02*
X390221D01*
X359078Y426401D02*
X390041D01*
X360796Y425051D02*
X389861D01*
X361369Y424601D02*
X389501D01*
X358505Y426851D02*
X389468D01*
X361942Y424151D02*
X389141D01*
X357933Y427301D02*
X388894D01*
X362514Y423701D02*
X388781D01*
X363087Y423251D02*
X388421D01*
X357360Y427751D02*
X388321D01*
X363660Y422801D02*
X388061D01*
X356787Y428201D02*
X387747D01*
X364233Y422351D02*
X387701D01*
X364805Y421901D02*
X387341D01*
X356214Y428651D02*
X387174D01*
X365378Y421451D02*
X386981D01*
X365951Y421001D02*
X386621D01*
X355642Y429101D02*
X386601D01*
X366524Y420551D02*
X386261D01*
X355069Y429551D02*
X386027D01*
X367096Y420101D02*
X385901D01*
X378163Y419651D02*
X385541D01*
X354496Y430001D02*
X385454D01*
X378726Y419201D02*
X385181D01*
X353924Y430451D02*
X384880D01*
X379288Y418751D02*
X384821D01*
X379851Y418301D02*
X384461D01*
X353351Y430901D02*
X384307D01*
X380413Y417851D02*
X384101D01*
X380976Y417401D02*
X383741D01*
X352778Y431351D02*
X383734D01*
X381538Y416951D02*
X383381D01*
X352205Y431801D02*
X383160D01*
X382101Y416501D02*
X383021D01*
X351633Y432251D02*
X382587D01*
X351060Y432701D02*
X382013D01*
X350487Y433151D02*
X381440D01*
X349914Y433601D02*
X380867D01*
X349342Y434051D02*
X380293D01*
X348769Y434501D02*
X379720D01*
X348196Y434951D02*
X379147D01*
X347624Y435401D02*
X378573D01*
X347051Y435851D02*
X378000D01*
X346478Y436301D02*
X377426D01*
X345905Y436751D02*
X376853D01*
X345333Y437201D02*
X376280D01*
X344760Y437651D02*
X375706D01*
X344187Y438101D02*
X375133D01*
X343614Y438551D02*
X374559D01*
X343042Y439001D02*
X373986D01*
X342469Y439451D02*
X373413D01*
X341896Y439901D02*
X372839D01*
X341324Y440351D02*
X372266D01*
X340751Y440801D02*
X371693D01*
X340178Y441251D02*
X371119D01*
X339605Y441701D02*
X370546D01*
X339865Y442151D02*
X369972D01*
X340214Y442601D02*
X369399D01*
X340562Y443051D02*
X368826D01*
X340911Y443501D02*
X368252D01*
X341259Y443951D02*
X367679D01*
X341607Y444401D02*
X367105D01*
X341956Y444851D02*
X366532D01*
X342304Y445301D02*
X365959D01*
X342652Y445751D02*
X365385D01*
X343001Y446201D02*
X364812D01*
X343349Y446651D02*
X364239D01*
X343698Y447101D02*
X363665D01*
X344046Y447551D02*
X363092D01*
X344394Y448001D02*
X362518D01*
X344743Y448451D02*
X361945D01*
X345091Y448901D02*
X361372D01*
X345440Y449351D02*
X360798D01*
X345788Y449801D02*
X360225D01*
X346136Y450251D02*
X359651D01*
X346485Y450701D02*
X359078D01*
X346833Y451151D02*
X358505D01*
X347182Y451601D02*
X357931D01*
X347530Y452051D02*
X357358D01*
X347878Y452501D02*
X356784D01*
X348227Y452951D02*
X356211D01*
X348575Y453401D02*
X355638D01*
X348923Y453851D02*
X355064D01*
X349272Y454301D02*
X354491D01*
X349620Y454751D02*
X353918D01*
X349969Y455201D02*
X353344D01*
X350317Y455651D02*
X352771D01*
X350665Y456101D02*
X352197D01*
X351014Y456551D02*
X351624D01*
X389651Y465951D02*
X420451D01*
X390224Y465501D02*
X420221D01*
X389078Y466401D02*
X420041D01*
X390796Y465051D02*
X419861D01*
X391369Y464601D02*
X419501D01*
X388505Y466851D02*
X419468D01*
X391942Y464151D02*
X419141D01*
X387933Y467301D02*
X418894D01*
X392514Y463701D02*
X418781D01*
X393087Y463251D02*
X418421D01*
X387360Y467751D02*
X418321D01*
X393660Y462801D02*
X418061D01*
X386787Y468201D02*
X417747D01*
X394233Y462351D02*
X417701D01*
X394805Y461901D02*
X417341D01*
X386214Y468651D02*
X417174D01*
X395378Y461451D02*
X416981D01*
X395951Y461001D02*
X416621D01*
X385642Y469101D02*
X416601D01*
X396524Y460551D02*
X416261D01*
X385069Y469551D02*
X416027D01*
X397096Y460101D02*
X415901D01*
X408163Y459651D02*
X415541D01*
X384496Y470001D02*
X415454D01*
X408726Y459201D02*
X415181D01*
X383924Y470451D02*
X414880D01*
X409288Y458751D02*
X414821D01*
X409851Y458301D02*
X414461D01*
X383351Y470901D02*
X414307D01*
X410413Y457851D02*
X414101D01*
X410976Y457401D02*
X413741D01*
X382778Y471351D02*
X413734D01*
X411538Y456951D02*
X413381D01*
X382205Y471801D02*
X413160D01*
X412101Y456501D02*
X413021D01*
X381633Y472251D02*
X412587D01*
X381060Y472701D02*
X412013D01*
X380487Y473151D02*
X411440D01*
X379914Y473601D02*
X410867D01*
X379342Y474051D02*
X410293D01*
X378769Y474501D02*
X409720D01*
X378196Y474951D02*
X409147D01*
X377624Y475401D02*
X408573D01*
X377051Y475851D02*
X408000D01*
X376478Y476301D02*
X407426D01*
X375905Y476751D02*
X406853D01*
X375333Y477201D02*
X406280D01*
X374760Y477651D02*
X405706D01*
X374187Y478101D02*
X405133D01*
X373614Y478551D02*
X404559D01*
X373042Y479001D02*
X403986D01*
X372469Y479451D02*
X403413D01*
X371896Y479901D02*
X402839D01*
X371324Y480351D02*
X402266D01*
X370751Y480801D02*
X401693D01*
X370178Y481251D02*
X401119D01*
X369605Y481701D02*
X400546D01*
X369865Y482151D02*
X399972D01*
X370214Y482601D02*
X399399D01*
X370562Y483051D02*
X398826D01*
X370911Y483501D02*
X398252D01*
X371259Y483951D02*
X397679D01*
X371607Y484401D02*
X397105D01*
X371956Y484851D02*
X396532D01*
X372304Y485301D02*
X395959D01*
X372652Y485751D02*
X395385D01*
X373001Y486201D02*
X394812D01*
X373349Y486651D02*
X394239D01*
X373698Y487101D02*
X393665D01*
X374046Y487551D02*
X393092D01*
X374394Y488001D02*
X392518D01*
X374743Y488451D02*
X391945D01*
X375091Y488901D02*
X391372D01*
X375440Y489351D02*
X390798D01*
X375788Y489801D02*
X390225D01*
X376136Y490251D02*
X389651D01*
X376485Y490701D02*
X389078D01*
X376833Y491151D02*
X388505D01*
X377182Y491601D02*
X387931D01*
X377530Y492051D02*
X387358D01*
X377878Y492501D02*
X386784D01*
X378227Y492951D02*
X386211D01*
X378575Y493401D02*
X385638D01*
X378923Y493851D02*
X385064D01*
X379272Y494301D02*
X384491D01*
X379620Y494751D02*
X383918D01*
X379969Y495201D02*
X383344D01*
X380317Y495651D02*
X382771D01*
X380665Y496101D02*
X382197D01*
X381014Y496551D02*
X381624D01*
X420300Y451951D02*
X442196D01*
X420648Y452401D02*
X442042D01*
X419951Y451501D02*
X441854D01*
X419602Y451051D02*
X441512D01*
X420997Y452851D02*
X441469D01*
X419254Y450601D02*
X441170D01*
X421346Y453301D02*
X440896D01*
X418905Y450151D02*
X440828D01*
X418556Y449701D02*
X440486D01*
X421694Y453751D02*
X440324D01*
X418207Y449251D02*
X440143D01*
X417859Y448801D02*
X439801D01*
X422043Y454201D02*
X439751D01*
X417510Y448351D02*
X439459D01*
X422392Y454651D02*
X439178D01*
X417161Y447901D02*
X439117D01*
X416813Y447451D02*
X438775D01*
X422740Y455101D02*
X438605D01*
X416464Y447001D02*
X438432D01*
X416115Y446551D02*
X438090D01*
X423089Y455551D02*
X438033D01*
X415767Y446101D02*
X437748D01*
X423438Y456001D02*
X437460D01*
X415418Y445651D02*
X437406D01*
X415069Y445201D02*
X437064D01*
X423787Y456451D02*
X436887D01*
X414721Y444751D02*
X436721D01*
X414372Y444301D02*
X436379D01*
X424135Y456901D02*
X436315D01*
X414023Y443851D02*
X436037D01*
X424484Y457351D02*
X435742D01*
X413674Y443401D02*
X435695D01*
X413326Y442951D02*
X435353D01*
X424833Y457801D02*
X435169D01*
X412977Y442501D02*
X435011D01*
X412628Y442051D02*
X434668D01*
X425181Y458251D02*
X434596D01*
X412280Y441601D02*
X434326D01*
X425530Y458701D02*
X434024D01*
X411931Y441151D02*
X433984D01*
X411582Y440701D02*
X433642D01*
X425879Y459151D02*
X433451D01*
X411234Y440251D02*
X433300D01*
X410885Y439801D02*
X432957D01*
X426227Y459601D02*
X432878D01*
X410536Y439351D02*
X432615D01*
X426576Y460051D02*
X432305D01*
X410188Y438901D02*
X432273D01*
X409839Y438451D02*
X431931D01*
X426925Y460501D02*
X431733D01*
X409490Y438001D02*
X431589D01*
X409142Y437551D02*
X431246D01*
X427273Y460951D02*
X431160D01*
X408793Y437101D02*
X430904D01*
X427622Y461401D02*
X430587D01*
X408444Y436651D02*
X430562D01*
X408095Y436201D02*
X430220D01*
X427971Y461851D02*
X430015D01*
X407747Y435751D02*
X429878D01*
X407398Y435301D02*
X429536D01*
X428320Y462301D02*
X429442D01*
X407049Y434851D02*
X429193D01*
X428668Y462751D02*
X428869D01*
X406701Y434401D02*
X428851D01*
X406352Y433951D02*
X428509D01*
X406003Y433501D02*
X428167D01*
X405655Y433051D02*
X427825D01*
X405306Y432601D02*
X427482D01*
X404957Y432151D02*
X427140D01*
X404609Y431701D02*
X426798D01*
X404260Y431251D02*
X426456D01*
X403911Y430801D02*
X426114D01*
X403562Y430351D02*
X425771D01*
X403214Y429901D02*
X425429D01*
X402865Y429451D02*
X425087D01*
X402516Y429001D02*
X424745D01*
X402168Y428551D02*
X424403D01*
X401819Y428101D02*
X424061D01*
X401470Y427651D02*
X423718D01*
X401122Y427201D02*
X423376D01*
X400773Y426751D02*
X423034D01*
X400424Y426301D02*
X422692D01*
X400076Y425851D02*
X422350D01*
X399727Y425401D02*
X422007D01*
X399378Y424951D02*
X421665D01*
X399029Y424501D02*
X421323D01*
X398681Y424051D02*
X420981D01*
X398332Y423601D02*
X420639D01*
X397983Y423151D02*
X420296D01*
X397635Y422701D02*
X419954D01*
X397286Y422251D02*
X419612D01*
X396937Y421801D02*
X419270D01*
X396589Y421351D02*
X418928D01*
X396240Y420901D02*
X418586D01*
X395891Y420451D02*
X418243D01*
X395543Y420001D02*
X417901D01*
X395194Y419551D02*
X417559D01*
X394845Y419101D02*
X417217D01*
X394496Y418651D02*
X416875D01*
X394148Y418201D02*
X416532D01*
X393799Y417751D02*
X416190D01*
X393450Y417301D02*
X415848D01*
X393102Y416851D02*
X415506D01*
X392753Y416401D02*
X415164D01*
X392404Y415951D02*
X414821D01*
X392056Y415501D02*
X414479D01*
X391707Y415051D02*
X414137D01*
X391358Y414601D02*
X413795D01*
X391010Y414151D02*
X413453D01*
X390661Y413701D02*
X413111D01*
X390312Y413251D02*
X412768D01*
X389963Y412801D02*
X412426D01*
X389615Y412351D02*
X412084D01*
X389266Y411901D02*
X411742D01*
X388917Y411451D02*
X411400D01*
X388569Y411001D02*
X411057D01*
X388220Y410551D02*
X410715D01*
X387871Y410101D02*
X410373D01*
X387523Y409651D02*
X410031D01*
X387174Y409201D02*
X409689D01*
X386825Y408751D02*
X409346D01*
X386477Y408301D02*
X409004D01*
X386128Y407851D02*
X408662D01*
X385779Y407401D02*
X408320D01*
X385431Y406951D02*
X407978D01*
X385082Y406501D02*
X407636D01*
X384733Y406051D02*
X407293D01*
X384384Y405601D02*
X406951D01*
X384036Y405151D02*
X406609D01*
X383687Y404701D02*
X406267D01*
X383338Y404251D02*
X405925D01*
X382990Y403801D02*
X405582D01*
X382641Y403351D02*
X405240D01*
X382292Y402901D02*
X404898D01*
X381944Y402451D02*
X404556D01*
X381595Y402001D02*
X404214D01*
X381246Y401551D02*
X403871D01*
X380898Y401101D02*
X403529D01*
X380549Y400651D02*
X403187D01*
X380200Y400201D02*
X402845D01*
X379851Y399751D02*
X402503D01*
X379503Y399301D02*
X402161D01*
X379154Y398851D02*
X401818D01*
X378805Y398401D02*
X401476D01*
X378457Y397951D02*
X401134D01*
X378108Y397501D02*
X400792D01*
X377759Y397051D02*
X400450D01*
X377411Y396601D02*
X400107D01*
X377062Y396151D02*
X399765D01*
X376713Y395701D02*
X399423D01*
X376365Y395251D02*
X399081D01*
X376016Y394801D02*
X398739D01*
X375667Y394351D02*
X398396D01*
X375318Y393901D02*
X398054D01*
X374970Y393451D02*
X397712D01*
X374621Y393001D02*
X397370D01*
X374272Y392551D02*
X397028D01*
X373924Y392101D02*
X396686D01*
X373575Y391651D02*
X396343D01*
X373226Y391201D02*
X396001D01*
X372878Y390751D02*
X395659D01*
X372529Y390301D02*
X395317D01*
X372180Y389851D02*
X394975D01*
X371832Y389401D02*
X394632D01*
X371483Y388951D02*
X394290D01*
X371134Y388501D02*
X393948D01*
X370785Y388051D02*
X393606D01*
X370437Y387601D02*
X393264D01*
X370088Y387151D02*
X392921D01*
X369739Y386701D02*
X392579D01*
X369391Y386251D02*
X392237D01*
X369042Y385801D02*
X391895D01*
X368693Y385351D02*
X391553D01*
X368345Y384901D02*
X391211D01*
X367996Y384451D02*
X390868D01*
X367647Y384001D02*
X390526D01*
X367299Y383551D02*
X390184D01*
X366950Y383101D02*
X389842D01*
X366601Y382651D02*
X389500D01*
X366253Y382201D02*
X389157D01*
X365904Y381751D02*
X388815D01*
X365555Y381301D02*
X388473D01*
X365206Y380851D02*
X388131D01*
X364858Y380401D02*
X387789D01*
X364509Y379951D02*
X387446D01*
X364160Y379501D02*
X387104D01*
X363812Y379051D02*
X386762D01*
X363463Y378601D02*
X386420D01*
X363114Y378151D02*
X386078D01*
X362766Y377701D02*
X385736D01*
X362417Y377251D02*
X385393D01*
X362068Y376801D02*
X385051D01*
X361720Y376351D02*
X384709D01*
X361371Y375901D02*
X384367D01*
X361022Y375451D02*
X384025D01*
X360673Y375001D02*
X383682D01*
X360325Y374551D02*
X383340D01*
X359976Y374101D02*
X382998D01*
X359627Y373651D02*
X382656D01*
X359279Y373201D02*
X382314D01*
X358930Y372751D02*
X381971D01*
X358581Y372301D02*
X381629D01*
X358233Y371851D02*
X381287D01*
X357884Y371401D02*
X380945D01*
X357535Y370951D02*
X380603D01*
X357187Y370501D02*
X380261D01*
X356838Y370051D02*
X379918D01*
X356489Y369601D02*
X379576D01*
X356140Y369151D02*
X379234D01*
X355792Y368701D02*
X378892D01*
X355443Y368251D02*
X378550D01*
X355094Y367801D02*
X378207D01*
X355568Y367351D02*
X377865D01*
X356155Y366901D02*
X377523D01*
X356742Y366451D02*
X377181D01*
X357329Y366001D02*
X376839D01*
X357916Y365551D02*
X376496D01*
X358503Y365101D02*
X376154D01*
X359090Y364651D02*
X375812D01*
X359677Y364201D02*
X375470D01*
X360264Y363751D02*
X375128D01*
X360851Y363301D02*
X374786D01*
X361438Y362851D02*
X374443D01*
X362025Y362401D02*
X374101D01*
X362612Y361951D02*
X373759D01*
X363199Y361501D02*
X373417D01*
X363786Y361051D02*
X373075D01*
X364373Y360601D02*
X372732D01*
X364960Y360151D02*
X372390D01*
X365547Y359701D02*
X372048D01*
X366134Y359251D02*
X371706D01*
X366721Y358801D02*
X371364D01*
X367308Y358351D02*
X371021D01*
X367895Y357901D02*
X370679D01*
X368482Y357451D02*
X370337D01*
X369068Y357001D02*
X369995D01*
X382951Y343098D02*
G75*
G03X381373Y335376I10120J-6090D01*
G01X381373*
X383115Y322892*
X383115*
X381545Y315183D02*
G03X383115Y322892I-10128J6077D01*
G01X381545Y315183D02*
X381545D01*
X363829Y285656*
X353701Y279921D02*
G03X363829Y285656I-0J11811D01*
G01X353701Y279921D02*
X219843D01*
X209206Y286597D02*
G03X219843Y279921I10637J5135D01*
G01X209206Y286597D02*
X209206D01*
G03X184000Y311175I-46450J-22424*
G01X143302Y329569*
X143302*
X136274Y347465D02*
G03X143302Y329569I12703J-5339D01*
G01X136274Y347465D02*
X136274D01*
G03X178504Y462992I-136903J115527*
G01Y478740*
X178504*
X193549Y497870D02*
G03X178504Y478740I4640J-19130D01*
G01X193549Y497870D02*
X272725Y517077D01*
G03X302000Y539525I-10756J44340*
G01X302000*
X309772Y545381D02*
G03X302000Y539525I2590J-11523D01*
G01X309772Y545381D02*
X309772D01*
X390810Y563599*
X402290Y558152D02*
G03X390810Y563599I-9219J-4609D01*
G01X402290Y558152D02*
X402290D01*
G03X429800Y548982I18340J9170*
G01X429800*
X435782Y548569D02*
G03X429800Y548982I-3341J-4869D01*
G01X435782Y548569D02*
X435782D01*
X438118Y546967*
X443232Y540270D02*
G03X438118Y546967I-12760J-4444D01*
G01X443232Y540270D02*
X443232D01*
X447340Y434604D02*
G03X443232Y540270I-175135J46104D01*
G01X447340Y434604D02*
X447340D01*
X437957Y398961*
X437957*
X429842Y390630D02*
G03X437957Y398961I-3307J11338D01*
G01X429842Y390630D02*
X412835Y385669D01*
X412835*
G03X404886Y379546I3858J-13228*
G01X382951Y343098*
X382951*
X206063Y474803D02*
G03X206063I-7874J0D01*
G01X243465Y293701D02*
G03X243465I-7874J0D01*
G01X361575D02*
G03X361575I-7874J0D01*
G01X430472Y401968D02*
G03X430472I-7874J0D01*
G01X440315Y514173D02*
G03X440315I-7874J0D01*
G54D117*
G01X253201Y403232D03*
Y407169D03*
X234701Y404732D03*
Y408669D03*
X349201Y528232D03*
Y532169D03*
X214232Y336401D03*
X218169D03*
X353201Y525669D03*
Y521732D03*
X357201D03*
Y525669D03*
X209169Y442701D03*
X205232D03*
X290732Y499701D03*
X294669D03*
X290732Y506701D03*
X294669D03*
X290732Y503201D03*
X294669D03*
X345701Y520732D03*
Y524669D03*
X327201Y500669D03*
Y496732D03*
X230732Y413201D03*
X234669D03*
X264732Y490201D03*
X268669D03*
X245732Y498201D03*
X249669D03*
X245732Y502701D03*
X249669D03*
X235169Y422201D03*
X231232D03*
X209701Y492669D03*
Y488732D03*
X213201Y492669D03*
Y488732D03*
X216701Y492669D03*
Y488732D03*
X227669Y499701D03*
X223732D03*
X236232Y505201D03*
X240169D03*
X191701Y318169D03*
Y314232D03*
X262201Y414232D03*
Y418169D03*
X244201Y420169D03*
Y416232D03*
X266201Y421169D03*
Y417232D03*
X278201Y439232D03*
Y443169D03*
G54D118*
X306201Y477736D03*
Y483665D03*
X317201Y483736D03*
Y489665D03*
G54D123*
X283001Y439051D03*
Y445551D03*
X341201Y519951D03*
Y526451D03*
X335701Y519951D03*
Y526451D03*
X322701Y502451D03*
Y495951D03*
X214701Y466951D03*
Y473451D03*
X226201Y377951D03*
Y384451D03*
X311701Y477451D03*
Y483951D03*
G54D125*
X259451Y491201D03*
X252951D03*
X234951Y417701D03*
X228451D03*
X232951Y377701D03*
X239451D03*
X233951Y500201D03*
X240451D03*
X220451Y325701D03*
X213951D03*
X220951Y319201D03*
X214451D03*
Y313701D03*
X220951D03*
X213951Y331201D03*
X220451D03*
X200951Y381201D03*
X194451D03*
X200951Y375701D03*
X194451D03*
X205951Y404201D03*
X199451D03*
X209451Y417701D03*
X202951D03*
X230451Y348201D03*
X236951D03*
X176451Y326201D03*
X182951D03*
X230451Y337201D03*
X236951D03*
X203951Y389701D03*
X197451D03*
X236951Y359201D03*
X230451D03*
X182951Y337201D03*
X176451D03*
X182951Y348201D03*
X176451D03*
X205951Y409701D03*
X199451D03*
X209451Y423201D03*
X202951D03*
X230451Y342701D03*
X236951D03*
X176451Y331701D03*
X182951D03*
X230451D03*
X236951D03*
X203951Y395201D03*
X197451D03*
X236951Y353701D03*
X230451D03*
X182951Y342701D03*
X176451D03*
X182951Y353701D03*
X176451D03*
G54D132*
X207236Y381201D03*
X213165D03*
X189236Y331701D03*
X195165D03*
X212236Y404201D03*
X218165D03*
X233236Y388201D03*
X239165D03*
X233236Y383201D03*
X239165D03*
X207665Y331201D03*
X201736D03*
X207665Y325701D03*
X201736D03*
X207236Y375701D03*
X213165D03*
X210236Y389701D03*
X216165D03*
X249165Y359201D03*
X243236D03*
X195165Y342701D03*
X189236D03*
X195165Y353701D03*
X189236D03*
X243236D03*
X249165D03*
X195165Y337201D03*
X189236D03*
Y348201D03*
X195165D03*
X212236Y409701D03*
X218165D03*
X215736Y423201D03*
X221665D03*
X215736Y417701D03*
X221665D03*
X243236Y342701D03*
X249165D03*
X195165Y326201D03*
X189236D03*
X243236Y331701D03*
X249165D03*
X243236Y348201D03*
X249165D03*
X243236Y337201D03*
X249165D03*
X210236Y395201D03*
X216165D03*
G54D140*
X206701Y318441D03*
Y314701D03*
Y310961D03*
X196701D03*
Y318441D03*
G54D143*
X257531Y414051D03*
X248870D03*
Y420350D03*
X257531D03*
G54D167*
X220075Y368638D03*
G54D168*
Y360764D03*
X212201Y368638D03*
Y360764D03*
X204327Y368638D03*
Y360764D03*
X171315Y373610D03*
X180926Y379234D03*
X173309Y381227D03*
X182920Y386852D03*
X175302Y388845D03*
X184913Y394469D03*
X177295Y396462D03*
X186906Y402087D03*
X179289Y404080D03*
X188900Y409704D03*
X181282Y411697D03*
X190893Y417322D03*
X183275Y419315D03*
X192886Y424939D03*
X185269Y426933D03*
X194879Y432557D03*
X187262Y434550D03*
X196873Y440174D03*
X189255Y442168D03*
X198866Y447792D03*
X191249Y449785D03*
X151891Y340933D03*
X162838Y342975D03*
X156344Y347427D03*
X167290Y349469D03*
X160796Y353921D03*
G54D171*
X261965Y431063D03*
X259996D03*
X258028D03*
X256059D03*
X254091D03*
X252122D03*
X250154D03*
X248185D03*
X246217D03*
X244248D03*
X242280D03*
X240311D03*
X238343D03*
X236374D03*
X234406D03*
X232437D03*
Y476339D03*
X234406D03*
X236374D03*
X238343D03*
X240311D03*
X242280D03*
X244248D03*
X246217D03*
X248185D03*
X250154D03*
X252122D03*
X254091D03*
X256059D03*
X258028D03*
X259996D03*
X261965D03*
G54D172*
X224563Y438937D03*
Y440906D03*
Y442874D03*
Y444843D03*
Y446811D03*
Y448780D03*
Y450748D03*
Y452717D03*
Y454685D03*
Y456654D03*
Y458622D03*
Y460591D03*
Y462559D03*
Y464528D03*
Y466496D03*
Y468465D03*
X269839D03*
Y466496D03*
Y464528D03*
Y462559D03*
Y460591D03*
Y458622D03*
Y456654D03*
Y454685D03*
Y452717D03*
Y450748D03*
Y448780D03*
Y446811D03*
Y444843D03*
Y442874D03*
Y440906D03*
Y438937D03*
G54D174*
X239551Y399401D03*
Y407001D03*
G54D175*
X365701Y515839D03*
G54D179*
X324894Y528756D03*
Y519701D03*
Y510646D03*
G54D180*
X301508Y519701D03*
G54D200*
X361961Y525563D03*
X369441D03*
G54D204*
X376201Y533662D03*
Y520339D03*
X226201Y402862D03*
Y389539D03*
G54D219*
X248457Y403201D03*
G54D243*
X368862Y532701D03*
X355539D03*
G54D275*
X427917Y495718D03*
X404484Y513683D03*
G54D276*
X340201Y389201D03*
X370701Y428701D03*
X402201Y469201D03*
X399201Y529701D03*
X443201Y491201D03*
G54D278*
X290101Y469201D03*
X299301D03*
G54D281*
X299539Y489106D03*
Y483201D03*
Y477295D03*
G54D284*
X308201Y502201D03*
X315201D03*
G54D285*
X229654Y488756D03*
X227685D03*
X225717D03*
X223748D03*
Y495646D03*
X225717D03*
X227685D03*
X229654D03*
G54D286*
X223256Y491217D03*
Y493185D03*
X230146D03*
Y491217D03*
G54D288*
X264646Y500362D03*
Y502921D03*
Y505480D03*
Y508039D03*
X282756D03*
Y505480D03*
Y502921D03*
Y500362D03*
G54D289*
X255701Y504598D03*
Y497803D03*
G74*
X0Y0D02*
M02*
