M48
;FILE_FORMAT=2:4
INCH,LZ
FMAT,2
ICI,OFF
;TYPE=PLATED
T1C.01181
T2C.03598
T3C.04724
T4C.07874
%
M72
G90
G93X0Y0
T1C.01181F095S3
X01862Y03142
X019247Y031091
X02097Y03027
X02097Y02967
X02157Y03027
X02157Y02967
X02252Y03132
X02517Y02967
X02517Y03032
X02637Y03107
X02697Y02897
X02697Y02927
X02727Y02897
X02727Y02927
X02727Y03107
X02782Y03137
X02877Y02897
X02967Y02897
X03057Y02897
X03117Y03092
X03147Y02897
X03167Y03052
X03237Y02897
X03272Y03042
X03277Y03092
X03327Y02897
X03397Y03089
X03582Y03087
X03657Y03117
X03747Y03167
X03747Y03227
X03742Y03282
X03702Y03282
X03687Y03167
X03687Y03227
X03582Y03232
X03577Y03316
X03577Y03357
X03507Y03197
X02762Y03247
X02762Y03187
X02712Y03162
X02637Y03167
X02532Y03382
X02487Y03167
X02397Y03167
X02387Y03237
X02327Y03262
X02282Y03162
X02247Y03192
X02247Y03327
X02242Y03257
X02222Y03352
X02102Y03147
X02043Y03379
X01982Y03317
X01982Y03262
X01857Y03182
X01797Y03177
X01762Y03222
X01727Y03357
X01437Y03437
X01487Y03487
X01527Y03567
X01717Y03437
X01882Y03622
X01947Y03572
X019986Y035072
X02102Y03427
X02127Y03477
X02162Y03572
X02167Y03457
X02187Y03437
X02207Y03522
X02257Y03402
X02532Y03482
X02532Y03428
X02537Y03597
X02557Y03627
X02592Y03532
X02592Y03562
X02597Y03417
X02622Y03597
X02652Y03597
X02922Y03572
X02937Y03487
X03042Y03552
X03062Y03432
X03067Y03527
X03087Y03467
X03112Y03417
X03117Y03497
X03117Y03557
X03192Y03417
X03267Y03417
X03577Y03517
X03577Y03437
X03607Y03637
X03637Y03472
X03637Y03637
X03657Y03527
X03687Y03587
X03707Y03427
X03737Y03637
X03737Y03587
X03747Y03527
X03787Y03637
X03787Y03587
X03807Y03527
X03837Y03637
X03837Y03587
X03887Y03587
X03887Y03637
X04087Y03887
X04037Y03837
X04037Y03887
X03987Y03787
X03987Y03837
X03987Y03887
X03937Y03687
X03937Y03737
X03937Y03787
X03937Y03837
X03937Y03887
X03887Y03687
X03887Y03737
X03887Y03787
X03887Y03837
X03887Y03887
X03837Y03687
X03837Y03737
X03837Y03787
X03837Y03837
X03787Y03687
X03787Y03787
X03737Y03887
X03727Y03757
X03697Y03757
X03697Y03727
X03697Y03787
X03687Y03837
X03667Y03727
X03667Y03697
X03667Y03757
X03667Y03787
X03667Y03667
X03637Y03697
X03637Y03727
X03637Y03757
X03637Y03667
X03607Y03727
X03607Y03697
X03607Y03667
X03577Y03697
X03577Y03667
X03537Y03887
X03507Y03857
X03507Y03887
X03477Y03827
X03297Y03887
X03282Y03677
X03247Y03712
X03198Y03869
X031774Y038403
X03107Y03652
X03107Y03767
X02967Y03647
X02842Y03647
X02721Y0365
X02712Y03877
X02712Y03797
X02712Y03837
X02689Y0365
X02655Y0365
X02615Y03735
X02607Y03827
X02537Y0374
X02537Y03827
X02463Y03835
X02457Y03887
X02432Y03832
X02394Y03737
X02312Y03657
X02207Y03832
X02067Y03857
X01942Y03687
X01937Y03882
X01957Y04027
X02082Y04002
X02082Y04137
X02217Y03907
X02217Y03962
X02217Y04097
X02217Y04132
X02438Y04089
X02439Y04117
X02492Y03992
X02492Y04087
X02532Y03992
X02567Y03957
X02567Y03997
X02582Y04022
X02587Y04097
X02592Y04062
X02642Y03972
X02662Y04137
X02677Y03907
X02747Y03987
X02747Y04077
X02872Y04132
X03057Y04127
X03117Y04037
X03133Y03917
X03147Y04007
X03147Y04037
X03147Y04067
X03177Y03977
X03177Y04007
X03177Y04037
X03177Y04067
X03177Y04097
X03177Y04127
X03207Y04007
X03207Y04037
X03207Y04067
X03207Y03947
X03207Y04097
X03207Y03977
X03207Y04127
X03237Y04067
X03237Y04007
X03237Y04097
X03237Y04037
X03237Y04127
X03267Y04037
X03267Y04067
X03267Y03917
X03267Y04097
X03297Y04067
X03297Y03917
X03297Y03947
X03297Y04097
X03327Y03947
X03327Y03977
X03327Y04127
X03357Y03977
X03357Y04007
X03357Y04037
X03357Y04127
X03387Y04007
X03417Y04067
X03447Y04037
X03447Y04067
X03447Y04097
X03477Y03947
X03477Y04067
X03477Y04037
X03477Y04097
X03477Y04127
X03507Y03917
X03507Y04067
X03507Y04127
X03507Y04097
X03567Y03947
X03567Y03977
X03594Y04076
X03597Y04007
X03597Y03947
X03597Y03977
X03627Y03977
X03627Y04007
X03787Y03937
X03837Y03937
X03877Y04087
X03887Y03937
X03887Y03987
X03907Y04057
X03907Y04087
X03907Y04117
X03937Y03937
X03937Y04027
X03937Y04087
X03937Y04057
X03937Y04117
X03967Y04057
X03967Y04087
X03967Y04117
X03987Y03937
X03997Y04117
X04037Y03937
X04037Y03987
X04087Y03937
X04087Y04087
X04137Y04137
X04337Y04137
X04387Y04137
X04437Y04337
X04437Y04387
X04387Y04187
X04387Y04237
X04387Y04287
X04387Y04337
X04387Y04387
X04337Y04187
X04337Y04237
X04337Y04287
X04337Y04337
X04337Y04387
X04287Y04187
X04287Y04237
X04287Y04287
X04287Y04337
X04237Y04187
X04237Y04237
X04237Y04287
X04237Y04337
X04237Y04387
X04187Y04187
X04187Y04237
X04187Y04337
X04187Y04287
X04187Y04387
X04137Y04187
X04137Y04237
X04057Y04177
X04027Y04207
X04027Y04147
X03997Y04177
X03997Y04147
X03967Y04177
X03967Y04147
X03937Y04147
X03927Y04367
X03897Y04367
X03897Y04337
X03867Y04367
X03837Y04277
X03807Y04307
X03807Y04277
X03807Y04247
X03777Y04217
X03657Y04367
X03627Y04337
X03627Y04367
X03597Y04277
X03597Y04307
X03597Y04337
X03567Y04307
X03507Y04367
X03505Y04268
X03477Y04367
X03477Y04157
X03441Y04311
X03417Y04217
X03387Y04187
X03387Y04217
X03357Y04217
X03357Y04187
X03357Y04157
X03327Y04157
X03327Y04187
X03327Y04217
X03297Y04157
X03297Y04187
X03207Y04337
X03207Y04157
X03177Y04307
X03147Y04247
X03147Y04277
X03117Y04247
X03117Y04217
X03087Y04187
X03087Y04217
X03057Y04187
X03057Y04157
X03051Y04392
X02899Y04309
X02857Y04237
X02817Y04337
X02797Y04162
X02792Y042379
X02777Y04272
X02773Y042059
X02736Y04329
X027214Y041839
X027063Y043503
X026956Y043003
X026756Y042805
X02387Y04372
X02149Y0435
X02132Y04372
X02117Y04272
X020108Y043604
X02007Y04297
X01992Y04177
X01942Y04572
X01967Y04597
X01997Y04597
X02027Y04597
X02057Y04597
X02082Y04642
X02087Y04612
X02122Y04492
X02122Y04462
X021265Y043993
X02127Y04427
X02309Y04637
X02352Y04555
X02353Y04526
X02376Y04457
X02377Y04428
X02377Y04399
X02382Y04525
X02383Y04496
X02405Y04425
X02406Y04456
X02408Y04397
X02453Y04527
X02455Y04583
X02455Y04613
X02497Y04456
X02498Y04427
X02499Y04399
X02602Y04539
X02602Y04509
X02603Y04588
X02603Y04616
X02604Y04644
X02627Y04496
X02777Y04491
X0279Y04522
X02792Y04462
X02823Y04523
X0283Y04489
X02845Y04567
X02858Y04522
X02902Y04502
X02923Y04409
X02937Y04567
X02982Y04587
X02987Y04527
X03021Y045
X03022Y04577
X03145Y04552
X03212Y04617
X03242Y04402
X03357Y04547
X03387Y04607
X03387Y04577
X03417Y04427
X03417Y04637
X03417Y04607
X03447Y04457
X03447Y04397
X03447Y04427
X03447Y04637
X03477Y04457
X03477Y04427
X03477Y04487
X03477Y04397
X03507Y04547
X03507Y04487
X03507Y04517
X03507Y04397
X03507Y04427
X03507Y04457
X03537Y04517
X03537Y04397
X03537Y04457
X03537Y04487
X03537Y04427
X03567Y04487
X03567Y04457
X03627Y04547
X03627Y04397
X03627Y04607
X03627Y04577
X03657Y04427
X03657Y04517
X03657Y04547
X03657Y04397
X03657Y04637
X03657Y04607
X03657Y04577
X03687Y04397
X03687Y04637
X03687Y04607
X03687Y04577
X03717Y04457
X03717Y04637
X03717Y04607
X03747Y04427
X03747Y04457
X03747Y04487
X03777Y04427
X03777Y04457
X03777Y04517
X03777Y04487
X03807Y04547
X03807Y04517
X03807Y04487
X03807Y04457
X03837Y04487
X03837Y04517
X03897Y04397
X03897Y04475
X03927Y04397
X03957Y04397
X04017Y04457
X04047Y04487
X04077Y04607
X04107Y04637
X04177Y04477
X04207Y04507
X04207Y04447
X04207Y04477
X04237Y04417
X04237Y04507
X04237Y04477
X04237Y04537
X04237Y04447
X04267Y04477
X04267Y04567
X04267Y04507
X04267Y04537
X04267Y04447
X04297Y04537
X04297Y04477
X04297Y04567
X04297Y04507
X04317Y04617
X04327Y04537
X04347Y04617
X04347Y04587
X04377Y04587
X04377Y04617
X04387Y04437
X04387Y04537
X04387Y04487
X04407Y04617
X04407Y04587
X04437Y04487
X04437Y04537
X04437Y04617
X04437Y04437
X04437Y04587
X04467Y04587
X04467Y04617
X04497Y04737
X04497Y04767
X04497Y04707
X04497Y04677
X04497Y04797
X04497Y04827
X04467Y04647
X04467Y04737
X04467Y04767
X04467Y04707
X04467Y04677
X04467Y04797
X04467Y04827
X04437Y04677
X04437Y04737
X04437Y04767
X04437Y04707
X04437Y04647
X04437Y04797
X04437Y04827
X04407Y04647
X04407Y04767
X04407Y04737
X04407Y04707
X04407Y04677
X04407Y04797
X04407Y04827
X04377Y04767
X04377Y04677
X04377Y04707
X04377Y04737
X04377Y04827
X04377Y04797
X04377Y04647
X04347Y04677
X04347Y04707
X04347Y04737
X04347Y04767
X04347Y04797
X04347Y04857
X04347Y04827
X04347Y04647
X04347Y04887
X04317Y04677
X04317Y04797
X04317Y04647
X04317Y04887
X04287Y04647
X04287Y04887
X04257Y04817
X04257Y04847
X04227Y04847
X04197Y04847
X04197Y04727
X04167Y04787
X04167Y04817
X04167Y04757
X04137Y04667
X04137Y04697
X04137Y04877
X04107Y04817
X04107Y04847
X04107Y04667
X04107Y04877
X04077Y04817
X04077Y04847
X04077Y04877
X04047Y04847
X04047Y04877
X04017Y04787
X03987Y04787
X03987Y04817
X03957Y04787
X03957Y04757
X03927Y04697
X03927Y04757
X03927Y04727
X03927Y04667
X03897Y04847
X03897Y04727
X03897Y04877
X03897Y04667
X03897Y04697
X03867Y04817
X03867Y04847
X03867Y04697
X03867Y04877
X03837Y04787
X03837Y04817
X03837Y04847
X03837Y04877
X0381Y04669
X03807Y04817
X03807Y04847
X03807Y04757
X03807Y04787
X03807Y04877
X03777Y04847
X03777Y04787
X03777Y04877
X03777Y04817
X03755Y04711
X03747Y04847
X03747Y04817
X03747Y04787
X03717Y04817
X03547Y04797
X03537Y04757
X03507Y04757
X03507Y04727
X03477Y04727
X03477Y04697
X03447Y04667
X03407Y04892
X03332Y04857
X03297Y04847
X03217Y04754
X03212Y04862
X03179Y04657
X03177Y04753
X03122Y04737
X0311Y04695
X03092Y04737
X03052Y04677
X03052Y04707
X02802Y04787
X02802Y04737
X02712Y04737
X02682Y04827
X02647Y04802
X02572Y04837
X02562Y04867
X02388Y04829
X023818Y046837
X02371Y04851
X023526Y046868
X02346Y04872
X0233Y0466
X02309Y04685
X02297Y04827
X02207Y04887
X02167Y04817
X02112Y04832
X01952Y04907
X01987Y04937
X02007Y04917
X02147Y04957
X02147Y04987
X02192Y04992
X02272Y04922
X02327Y04952
X02392Y04952
X02427Y04957
X02427Y04927
X02437Y05052
X02557Y04942
X02592Y05077
X02597Y04952
X02647Y05107
X02702Y05062
X02727Y05047
X02752Y05067
X02762Y04922
X02772Y05112
X02777Y05052
X02812Y04947
X02817Y04977
X02872Y05002
X02912Y04932
X02912Y04962
X03072Y04897
X03072Y04932
X03102Y04932
X03102Y04897
X03132Y05092
X03162Y05092
X03167Y04932
X03227Y04922
X03272Y04937
X03332Y05127
X03342Y04952
X03357Y05102
X03382Y05137
X03467Y04957
X03492Y05017
X03562Y04947
X03657Y04967
X03657Y04937
X03687Y04997
X03687Y04967
X03717Y05027
X03717Y04997
X03747Y05057
X03777Y05027
X03777Y05117
X03777Y05087
X03807Y04907
X03807Y05117
X03837Y04907
X03867Y04907
X03897Y04967
X03927Y04997
X03927Y05027
X03927Y04937
X03927Y04967
X03957Y04997
X03957Y05027
X03957Y05057
X03957Y04967
X03957Y04937
X03987Y05057
X03987Y05027
X03987Y04967
X03987Y04997
X04017Y05027
X04017Y04997
X04077Y04907
X04107Y04937
X04107Y04907
X04137Y04937
X04137Y04907
X04317Y04917
X04347Y04947
X04347Y04977
X04347Y04917
X03937Y05387
X03897Y05247
X03897Y05217
X03887Y05387
X03867Y05247
X03867Y05217
X03867Y05337
X03867Y05277
X03867Y05307
X03837Y05247
X03837Y05217
X03837Y05307
X03837Y05277
X03837Y05337
X03837Y05387
X03837Y05147
X03807Y05147
X03787Y05272
X03787Y05242
X03782Y05377
X03762Y05302
X03742Y05272
X03742Y05242
X037229Y052103
X035989Y052143
X03562Y05187
X03507Y05362
X03492Y05177
X03492Y05207
X03457Y05177
X03417Y05147
X03268Y05387
X03228Y05387
X03207Y05242
X03146Y05241
X03057Y05367
X03057Y05307
X03117Y05427
X03177Y05427
X03228Y05427
X03268Y05427
X03417Y05487
X03477Y05487
X03597Y05517
X03692Y05527
X03722Y05527
X03752Y05527
X03782Y05527
T2C.03598F197S55
X015189Y034093
X015634Y034743
X015839Y033648
X01608Y035392
X016284Y034297
X016729Y034947
X020433Y036076
X02122Y036076
X022007Y036076
X022007Y036864
X02122Y036864
X020433Y036864
X01889Y04097
X018691Y040209
X018491Y039447
X018292Y038685
X018128Y04117
X018093Y037923
X017929Y040408
X017893Y037162
X01773Y039646
X01753Y038884
X017331Y038123
X017132Y037361
X018328Y041931
X018527Y042693
X018726Y043455
X018926Y044217
X019089Y041732
X019125Y044979
X019289Y042494
X019488Y043256
X019687Y044017
X019887Y044779
T3C.04724F139S55
X040448Y051368
X042792Y049572
T4C.07874F081S55
X03402Y03892
X03707Y04287
X04432Y04912
X04022Y04692
X03992Y05297
M30
